# Blender 4.4.1
# www.blender.org
mtllib ICO.mtl
o ICO球
v -0.047028 -1.033464 -0.010714
v 0.676579 -0.480684 0.515012
v -0.323416 -0.480684 0.839935
v -0.941454 -0.480680 -0.010714
v -0.323416 -0.480684 -0.861363
v 0.676579 -0.480684 -0.536439
v 0.229360 0.413756 0.839935
v -0.770635 0.413756 0.515012
v -0.770635 0.413756 -0.536439
v 0.229360 0.413756 -0.861363
v 0.847398 0.413752 -0.010714
v -0.047028 0.966536 -0.010714
v -0.209484 -0.884118 0.489281
v 0.378295 -0.884118 0.298298
v 0.215841 -0.559201 0.798298
v 0.803620 -0.559200 -0.010714
v 0.378295 -0.884118 -0.319725
v -0.572758 -0.884116 -0.010714
v -0.735218 -0.559200 0.489283
v -0.209484 -0.884118 -0.510709
v -0.735218 -0.559200 -0.510711
v 0.215841 -0.559201 -0.819726
v 0.904030 -0.033464 0.298299
v 0.904030 -0.033464 -0.319726
v -0.047028 -0.033464 0.989286
v 0.540758 -0.033464 0.798303
v -0.998086 -0.033464 0.298299
v -0.634814 -0.033464 0.798303
v -0.634814 -0.033464 -0.819731
v -0.998086 -0.033464 -0.319726
v 0.540758 -0.033464 -0.819731
v -0.047028 -0.033464 -1.010714
v 0.641161 0.492272 0.489283
v -0.309897 0.492274 0.798298
v -0.897676 0.492272 -0.010714
v -0.309897 0.492274 -0.819726
v 0.641161 0.492272 -0.510711
v 0.115427 0.817190 0.489281
v 0.478702 0.817188 -0.010714
v -0.472351 0.817190 0.298298
v -0.472351 0.817190 -0.319725
v 0.115427 0.817190 -0.510709
v 0.637575 1.376447 -0.126141
v 0.111845 1.525796 -0.126141
v 0.274301 1.376450 -0.626136
v 1.283532 0.393620 1.766238
v 0.972135 0.840840 1.807871
v 1.383936 0.919357 1.457219
v 1.876483 -0.219192 0.298299
v 1.876483 -0.219192 -0.319726
v 1.776074 -0.744928 -0.010714
v 0.656514 -0.105007 -1.175991
v 0.068728 -0.105007 -1.366974
v 0.331597 -0.630745 -1.175986
v -1.274470 0.848336 -0.154943
v -1.147430 0.769819 -0.680668
v -0.849145 1.173254 -0.463954
v -0.161746 -1.324064 -0.657629
v 0.000710 -1.473409 -0.157634
v 0.426033 -1.324064 -0.466645
v -1.386406 -0.887317 -0.130387
v -1.017710 -1.290753 -0.130387
v -1.180170 -0.965838 -0.630383
v -0.957615 0.166039 1.268013
v -1.093437 0.613258 0.984722
v -0.632699 0.691776 1.268008
vn 0.1024 -0.9435 0.3151
vn 0.7002 -0.6617 0.2680
vn -0.2680 -0.9435 0.1947
vn -0.2680 -0.9435 -0.1947
vn 0.2916 0.3313 -0.8973
vn 0.9050 -0.3304 0.2680
vn 0.0247 -0.3304 0.9435
vn -0.8897 -0.3304 0.3151
vn -0.5746 -0.3304 -0.7488
vn 0.5346 -0.3304 -0.7779
vn 0.8026 -0.1256 0.5831
vn -0.3066 -0.1256 0.9435
vn -0.9921 -0.1256 -0.0000
vn -0.3066 -0.1256 -0.9435
vn 0.8026 -0.1256 -0.5831
vn 0.4089 0.6617 0.6284
vn -0.4713 0.6617 0.5831
vn 0.1899 0.5346 0.8235
vn 0.0385 0.6617 -0.7488
vn 0.7240 0.6617 -0.1947
vn 0.7633 -0.3313 -0.5546
vn 0.4911 0.7947 -0.3568
vn 0.4089 0.6617 -0.6284
vn -0.1024 0.9435 -0.3151
vn -0.1876 0.7947 -0.5773
vn -0.4713 0.6617 -0.5831
vn -0.3313 0.9435 -0.0000
vn -0.6071 0.7947 -0.0000
vn -0.7002 0.6617 0.2680
vn -0.1024 0.9435 0.3151
vn -0.1876 0.7947 0.5773
vn 0.0385 0.6617 0.7488
vn 0.2680 0.9435 0.1947
vn 0.4911 0.7947 0.3568
vn 0.7240 0.6617 0.1947
vn 0.8897 0.3304 -0.3151
vn 0.7947 0.1876 -0.5773
vn 0.5746 0.3304 -0.7488
vn -0.0247 0.3304 -0.9435
vn -0.3035 0.1876 -0.9342
vn -0.5346 0.3304 -0.7779
vn -0.9050 0.3304 -0.2680
vn -0.9822 0.1876 -0.0000
vn -0.9050 0.3304 0.2680
vn 0.6617 -0.4089 0.6284
vn -0.3035 0.1876 0.9342
vn -0.0247 0.3304 0.9435
vn 0.8021 -0.4089 -0.4351
vn 0.7947 0.1876 0.5773
vn 0.8897 0.3304 0.3151
vn 0.3066 0.1256 -0.9435
vn -0.8526 -0.4911 -0.1784
vn 0.0247 -0.3304 -0.9435
vn -0.8026 0.1256 -0.5831
vn -0.7947 -0.1876 -0.5773
vn -0.8897 -0.3304 -0.3151
vn -0.8026 0.1256 0.5831
vn -0.7947 -0.1876 0.5773
vn -0.5746 -0.3304 0.7488
vn 0.3066 0.1256 0.9435
vn 0.3035 -0.1876 0.9342
vn 0.5346 -0.3304 0.7779
vn 0.9921 0.1256 -0.0000
vn -0.0938 -0.4911 -0.8660
vn 0.9050 -0.3304 -0.2680
vn 0.4713 -0.6617 -0.5831
vn 0.1876 -0.7947 -0.5773
vn -0.0385 -0.6617 -0.7488
vn -0.4089 -0.6617 -0.6284
vn -0.4911 -0.7947 -0.3568
vn 0.6377 -0.5346 -0.5546
vn -0.7240 -0.6617 0.1947
vn -0.4911 -0.7947 0.3568
vn -0.4089 -0.6617 0.6284
vn 0.7002 -0.6617 -0.2680
vn 0.6071 -0.7947 -0.0000
vn 0.3313 -0.9435 -0.0000
vn -0.0385 -0.6617 0.7488
vn 0.1876 -0.7947 0.5773
vn 0.4713 -0.6617 0.5831
vn 0.2680 0.9435 -0.1947
vn -0.9164 0.1873 -0.3537
vn 0.0532 0.1873 0.9809
vn 0.5746 0.3304 0.7488
vn -0.3195 0.9328 -0.1664
vn -0.5875 -0.4704 0.6584
vn 0.9822 -0.1876 -0.0000
vn -0.0938 -0.4911 0.8660
vn 0.1876 0.9822 -0.0000
vn 0.3035 -0.1876 -0.9342
vn 0.7947 -0.4911 0.3568
vn 0.0580 0.9822 -0.1784
vn -0.7002 0.6617 -0.2680
vn 0.4602 0.1314 -0.8780
vn -0.6750 -0.7359 -0.0532
vn 0.1024 -0.9435 -0.3151
vn 0.6196 -0.1873 0.7623
vn -0.9493 -0.1873 0.2525
vn -0.7240 -0.6617 -0.1947
vn -0.5774 0.7359 -0.3537
vn -0.1437 -0.1314 0.9809
vn -0.5346 0.3304 0.7779
vn 0.0595 0.9328 -0.3553
vn -0.8078 -0.4704 -0.3553
vt 0.181819 0.000000
vt 0.227273 0.078731
vt 0.136365 0.078731
vt 0.272728 0.157461
vt 0.318182 0.078731
vt 0.363637 0.157461
vt 0.909091 0.000000
vt 0.954545 0.078731
vt 0.863636 0.078731
vt 0.727273 0.000000
vt 0.772727 0.078731
vt 0.681818 0.078731
vt 0.500000 0.078731
vt 0.590909 0.078731
vt 0.318182 0.236191
vt 0.090910 0.157461
vt 0.181819 0.157461
vt 0.136365 0.236191
vt 0.818182 0.157461
vt 0.909091 0.157461
vt 0.863636 0.236191
vt 0.636364 0.157461
vt 0.727273 0.157461
vt 0.681818 0.236191
vt 0.454546 0.157461
vt 0.545455 0.157461
vt 0.500000 0.236191
vt 0.227273 0.236191
vt 0.045455 0.236191
vt 0.772727 0.236191
vt 0.590909 0.236191
vt 0.409092 0.236191
vt 0.181819 0.314921
vt 0.272728 0.314921
vt 0.227273 0.393651
vt 0.000000 0.314921
vt 0.090910 0.314921
vt 0.045455 0.393651
vt 0.772727 0.393651
vt 0.818182 0.314921
vt 0.545455 0.314921
vt 0.636364 0.314921
vt 0.590909 0.393651
vt 0.363637 0.314921
vt 0.454546 0.314921
vt 0.409092 0.393651
vt 0.500000 0.393651
vt 0.681818 0.393651
vt 0.636364 0.472382
vt 0.727273 0.314921
vt 0.863636 0.393651
vt 0.818182 0.472382
vt 0.909091 0.314921
vt 0.136365 0.393651
vt 0.090910 0.472382
vt 0.318182 0.393651
vt 0.272728 0.472382
vt 0.954545 0.236191
vt 1.000000 0.157461
vt 0.409092 0.078731
vt 0.363637 0.000000
vt 0.454546 0.472382
vt 0.545455 0.000000
s 0
usemtl マテリアル.001
f 1/1/1 14/2/1 13/3/1
f 2/4/2 14/5/2 16/6/2
f 1/7/3 13/8/3 18/9/3
f 1/10/4 18/11/4 20/12/4
f 17/13/5 58/14/5 20/14/5
f 2/4/6 16/6/6 23/15/6
f 3/16/7 15/17/7 25/18/7
f 4/19/8 19/20/8 27/21/8
f 5/22/9 21/23/9 29/24/9
f 6/25/10 22/26/10 31/27/10
f 2/4/11 23/15/11 26/28/11
f 3/16/12 25/18/12 28/29/12
f 4/19/13 27/21/13 30/30/13
f 5/22/14 29/24/14 32/31/14
f 6/25/15 31/27/15 24/32/15
f 7/33/16 33/34/16 38/35/16
f 8/36/17 34/37/17 40/38/17
f 41/39/18 55/40/18 35/40/18
f 10/41/19 36/42/19 42/43/19
f 11/44/20 37/45/20 39/46/20
f 42/47/21 43/46/21 39/46/21
f 39/46/22 37/45/22 42/47/22
f 37/45/23 10/41/23 42/47/23
f 42/43/24 41/48/24 12/49/24
f 42/43/25 36/42/25 41/48/25
f 36/42/26 9/50/26 41/48/26
f 41/39/27 40/51/27 12/52/27
f 41/39/28 35/40/28 40/51/28
f 35/40/29 8/53/29 40/51/29
f 40/38/30 38/54/30 12/55/30
f 40/38/31 34/37/31 38/54/31
f 34/37/32 7/33/32 38/54/32
f 38/35/33 39/56/33 12/57/33
f 38/35/34 33/34/34 39/56/34
f 33/34/35 11/44/35 39/56/35
f 24/32/36 37/45/36 11/44/36
f 24/32/37 31/27/37 37/45/37
f 31/27/38 10/41/38 37/45/38
f 32/31/39 36/42/39 10/41/39
f 32/31/40 29/24/40 36/42/40
f 29/24/41 9/50/41 36/42/41
f 30/30/42 35/40/42 9/50/42
f 30/30/43 27/21/43 35/40/43
f 27/21/44 8/53/44 35/40/44
f 34/37/45 64/29/45 28/29/45
f 28/29/46 25/18/46 34/37/46
f 25/18/47 7/33/47 34/37/47
f 26/28/48 48/34/48 46/28/48
f 26/28/49 23/15/49 33/34/49
f 23/15/50 11/44/50 33/34/50
f 31/27/51 32/31/51 10/41/51
f 32/31/52 54/26/52 22/26/52
f 22/26/53 5/22/53 32/31/53
f 29/24/54 30/30/54 9/50/54
f 29/24/55 21/23/55 30/30/55
f 21/23/56 4/19/56 30/30/56
f 27/21/57 28/58/57 8/53/57
f 27/21/58 19/20/58 28/58/58
f 19/20/59 3/59/59 28/58/59
f 25/18/60 26/28/60 7/33/60
f 25/18/61 15/17/61 26/28/61
f 15/17/62 2/4/62 26/28/62
f 23/15/63 24/32/63 11/44/63
f 24/32/64 51/6/64 16/6/64
f 16/6/65 6/25/65 24/32/65
f 17/13/66 22/26/66 6/25/66
f 17/13/67 20/14/67 22/26/67
f 20/14/68 5/22/68 22/26/68
f 20/12/69 21/23/69 5/22/69
f 20/12/70 18/11/70 21/23/70
f 18/11/71 63/23/71 21/23/71
f 18/9/72 19/20/72 4/19/72
f 18/9/73 13/8/73 19/20/73
f 13/8/74 3/59/74 19/20/74
f 16/6/75 17/60/75 6/25/75
f 16/6/76 14/5/76 17/60/76
f 14/5/77 1/61/77 17/60/77
f 13/3/78 15/17/78 3/16/78
f 13/3/79 14/2/79 15/17/79
f 14/2/80 2/4/80 15/17/80
f 43/46/81 45/47/81 44/62/81
f 12/49/82 45/43/82 42/43/82
f 39/56/83 44/57/83 12/57/83
f 46/28/84 48/34/84 47/33/84
f 7/33/85 48/34/85 33/34/85
f 7/33/86 46/28/86 47/33/86
f 49/15/87 51/6/87 50/32/87
f 16/6/88 49/15/88 23/15/88
f 23/15/89 50/32/89 24/32/89
f 52/27/90 54/26/90 53/31/90
f 22/26/91 52/27/91 31/27/91
f 31/27/92 53/31/92 32/31/92
f 56/50/93 55/40/93 57/39/93
f 9/50/94 57/48/94 41/48/94
f 35/40/95 56/50/95 9/50/95
f 59/63/96 58/14/96 60/13/96
f 1/61/97 60/60/97 17/60/97
f 20/12/98 59/10/98 1/10/98
f 62/11/99 61/19/99 63/23/99
f 4/19/100 63/23/100 61/19/100
f 4/19/101 62/9/101 18/9/101
f 64/29/102 66/37/102 65/36/102
f 8/36/103 66/37/103 34/37/103
f 28/58/104 65/53/104 8/53/104
f 17/13/5 60/13/5 58/14/5
f 41/39/18 57/39/18 55/40/18
f 42/47/21 45/47/21 43/46/21
f 34/37/45 66/37/45 64/29/45
f 26/28/48 33/34/48 48/34/48
f 32/31/52 53/31/52 54/26/52
f 24/32/64 50/32/64 51/6/64
f 18/11/71 62/11/71 63/23/71
f 12/49/82 44/49/82 45/43/82
f 39/56/83 43/56/83 44/57/83
f 7/33/85 47/33/85 48/34/85
f 7/33/86 26/28/86 46/28/86
f 16/6/88 51/6/88 49/15/88
f 23/15/89 49/15/89 50/32/89
f 22/26/91 54/26/91 52/27/91
f 31/27/92 52/27/92 53/31/92
f 9/50/94 56/50/94 57/48/94
f 35/40/95 55/40/95 56/50/95
f 1/61/97 59/61/97 60/60/97
f 20/12/98 58/12/98 59/10/98
f 4/19/100 21/23/100 63/23/100
f 4/19/101 61/19/101 62/9/101
f 8/36/103 65/36/103 66/37/103
f 28/58/104 64/58/104 65/53/104
