# Blender 4.4.1
# www.blender.org
mtllib monolith.mtl
o Cube
v 0.273347 7.628288 -1.000000
v 0.273347 0.100413 -1.000000
v 0.273347 7.628288 1.000000
v 0.273347 0.100413 1.000000
v -0.273347 7.628288 -1.000000
v -0.273347 0.100413 -1.000000
v -0.273347 7.628288 1.000000
v -0.273347 0.100413 1.000000
v -0.273347 5.110374 0.494637
v -0.273347 5.013875 0.485133
v -0.273347 5.299664 0.456985
v -0.273347 4.921084 0.456985
v -0.273347 5.206873 0.485133
v -0.273347 4.835567 0.411276
v -0.273347 5.385180 0.411276
v -0.273347 4.699097 0.274806
v -0.273347 5.521650 0.274806
v -0.273347 4.760612 0.349761
v -0.273347 5.460135 0.349761
v -0.273347 5.567360 0.189289
v -0.273347 4.653388 0.189289
v -0.273347 4.625240 0.096499
v -0.273347 5.595508 0.096499
v -0.273347 4.615736 0.000000
v -0.273347 5.605012 0.000000
v -0.273347 5.567360 -0.189289
v -0.273347 4.653388 -0.189289
v -0.273347 5.460135 -0.349761
v -0.273347 5.521650 -0.274806
v -0.273347 5.595508 -0.096499
v -0.273347 4.625240 -0.096499
v -0.273347 4.760612 -0.349761
v -0.273347 5.385180 -0.411276
v -0.273347 4.835567 -0.411276
v -0.273347 4.699097 -0.274806
v -0.273347 4.921084 -0.456985
v -0.273347 5.299664 -0.456985
v -0.273347 5.110374 -0.494637
v -0.273347 5.206873 -0.485133
v -0.273347 5.013875 -0.485133
v 0.273347 5.459607 0.349761
v 0.273347 5.521122 0.274806
v 0.273347 5.566831 0.189289
v 0.273347 4.652859 0.189289
v 0.273347 5.594979 0.096499
v 0.273347 4.624712 0.096499
v 0.273347 4.615207 0.000000
v 0.273347 5.604483 0.000000
v 0.273347 4.624712 -0.096499
v 0.273347 4.652859 -0.189289
v 0.273347 5.594979 -0.096499
v 0.273347 5.566831 -0.189289
v 0.273347 5.521122 -0.274806
v 0.273347 4.698568 -0.274806
v 0.273347 4.760083 -0.349761
v 0.273347 5.459607 -0.349761
v 0.273347 4.835039 -0.411276
v 0.273347 5.384651 -0.411276
v 0.273347 4.920555 -0.456985
v 0.273347 5.299135 -0.456985
v 0.273347 5.109845 -0.494637
v 0.273347 5.013346 -0.485133
v 0.273347 5.206344 -0.485133
v 0.273347 5.109845 0.494637
v 0.273347 4.920555 0.456985
v 0.273347 5.299135 0.456985
v 0.273347 5.013346 0.485133
v 0.273347 5.206344 0.485133
v 0.273347 4.835039 0.411276
v 0.273347 5.384651 0.411276
v 0.273347 4.760083 0.349761
v 0.273347 4.698568 0.274806
vn -0.0000 1.0000 -0.0000
vn -0.0000 -0.0000 1.0000
vn -1.0000 -0.0000 -0.0000
vn -0.0000 -1.0000 -0.0000
vn 1.0000 -0.0000 -0.0000
vn -0.0000 -0.0000 -1.0000
vn 0.0001 0.0980 0.9952
vn 0.0003 0.2903 0.9569
vn 0.0005 0.4714 0.8819
vn 0.0006 0.6344 0.7730
vn 0.0007 0.7730 0.6344
vn 0.0009 0.8819 0.4714
vn 0.0009 0.9569 0.2903
vn 0.0010 0.9952 0.0980
vn 0.0010 0.9952 -0.0980
vn 0.0009 0.9569 -0.2903
vn 0.0009 0.8819 -0.4714
vn 0.0007 0.7730 -0.6344
vn 0.0006 0.6344 -0.7730
vn 0.0005 0.4714 -0.8819
vn 0.0003 0.2903 -0.9569
vn 0.0001 0.0980 -0.9952
vn -0.0001 -0.0980 -0.9952
vn -0.0003 -0.2903 -0.9569
vn -0.0005 -0.4714 -0.8819
vn -0.0006 -0.6344 -0.7730
vn -0.0007 -0.7730 -0.6344
vn -0.0009 -0.8819 -0.4714
vn -0.0009 -0.9569 -0.2903
vn -0.0010 -0.9952 -0.0980
vn -0.0010 -0.9952 0.0980
vn -0.0009 -0.9569 0.2903
vn -0.0009 -0.8819 0.4714
vn -0.0007 -0.7730 0.6344
vn -0.0006 -0.6344 0.7730
vn -0.0005 -0.4714 0.8819
vn -0.0003 -0.2903 0.9569
vn -0.0001 -0.0980 0.9952
vt 0.875000 0.500000
vt 0.625000 0.750000
vt 0.625000 0.500000
vt 0.375000 1.000000
vt 0.375000 0.750000
vt 0.625000 0.250000
vt 0.557492 0.137062
vt 0.557807 0.125000
vt 0.375000 0.000000
vt 0.525269 0.112938
vt 0.524953 0.125000
vt 0.375000 0.500000
vt 0.125000 0.750000
vt 0.125000 0.500000
vt 0.557474 0.637062
vt 0.557790 0.625000
vt 0.525252 0.612938
vt 0.524936 0.625000
vt 0.375000 0.250000
vt 0.000000 0.000000
vt 0.875000 0.750000
vt 0.625000 1.000000
vt 0.550507 0.073591
vt 0.547667 0.067877
vt 0.625000 0.000000
vt 0.547667 0.182123
vt 0.550507 0.176409
vt 0.552996 0.168720
vt 0.552996 0.081280
vt 0.555039 0.090649
vt 0.556557 0.101339
vt 0.555039 0.159351
vt 0.556557 0.148661
vt 0.557492 0.112938
vt 0.544585 0.185642
vt 0.544585 0.064358
vt 0.541380 0.063170
vt 0.541380 0.186830
vt 0.538176 0.064358
vt 0.538176 0.185642
vt 0.535094 0.182123
vt 0.535094 0.067877
vt 0.532254 0.073591
vt 0.532254 0.176409
vt 0.529765 0.168720
vt 0.529765 0.081280
vt 0.527722 0.090649
vt 0.527722 0.159351
vt 0.526204 0.148661
vt 0.526204 0.101339
vt 0.525269 0.137062
vt 0.550489 0.573590
vt 0.547649 0.567877
vt 0.547649 0.682123
vt 0.550489 0.676409
vt 0.552978 0.668720
vt 0.552978 0.581280
vt 0.555021 0.590649
vt 0.556539 0.601339
vt 0.555021 0.659351
vt 0.556539 0.648661
vt 0.557474 0.612938
vt 0.544568 0.685642
vt 0.544568 0.564358
vt 0.541363 0.563170
vt 0.541363 0.686830
vt 0.538158 0.564358
vt 0.538158 0.685642
vt 0.535076 0.682123
vt 0.535076 0.567877
vt 0.532237 0.573591
vt 0.532236 0.676409
vt 0.529747 0.668720
vt 0.529747 0.581280
vt 0.527704 0.590649
vt 0.527704 0.659351
vt 0.526186 0.648661
vt 0.526186 0.601339
vt 0.525252 0.637062
s 0
usemtl Material
f 5/1/1 3/2/1 1/3/1
f 3/2/2 8/4/2 4/5/2
f 5/6/3 30/7/3 25/8/3
f 8/9/3 22/10/3 24/11/3
f 2/12/4 8/13/4 6/14/4
f 3/2/5 45/15/5 48/16/5
f 2/12/5 49/17/5 47/18/5
f 5/6/6 2/12/6 6/19/6
f 40/20/7 61/20/7 38/20/7
f 36/20/8 62/20/8 40/20/8
f 34/20/9 59/20/9 36/20/9
f 32/20/10 57/20/10 34/20/10
f 35/20/11 55/20/11 32/20/11
f 27/20/12 54/20/12 35/20/12
f 31/20/13 50/20/13 27/20/13
f 24/20/14 49/20/14 31/20/14
f 24/20/15 46/20/15 47/20/15
f 22/20/16 44/20/16 46/20/16
f 21/20/17 72/20/17 44/20/17
f 16/20/18 71/20/18 72/20/18
f 18/20/19 69/20/19 71/20/19
f 14/20/20 65/20/20 69/20/20
f 12/20/21 67/20/21 65/20/21
f 64/20/22 10/20/22 9/20/22
f 68/20/23 9/20/23 13/20/23
f 66/20/24 13/20/24 11/20/24
f 70/20/25 11/20/25 15/20/25
f 15/20/26 41/20/26 70/20/26
f 42/20/27 19/20/27 17/20/27
f 43/20/28 17/20/28 20/20/28
f 45/20/29 20/20/29 23/20/29
f 48/20/30 23/20/30 25/20/30
f 30/20/31 48/20/31 25/20/31
f 26/20/32 51/20/32 30/20/32
f 29/20/33 52/20/33 26/20/33
f 28/20/34 53/20/34 29/20/34
f 33/20/35 56/20/35 28/20/35
f 37/20/36 58/20/36 33/20/36
f 39/20/37 60/20/37 37/20/37
f 38/20/38 63/20/38 39/20/38
f 5/1/1 7/21/1 3/2/1
f 3/2/2 7/22/2 8/4/2
f 15/23/3 11/24/3 7/25/3
f 5/6/3 37/26/3 33/27/3
f 5/6/3 33/27/3 28/28/3
f 15/23/3 7/25/3 19/29/3
f 7/25/3 5/6/3 25/8/3
f 19/29/3 7/25/3 17/30/3
f 17/30/3 7/25/3 20/31/3
f 5/6/3 28/28/3 29/32/3
f 5/6/3 29/32/3 26/33/3
f 20/31/3 7/25/3 23/34/3
f 23/34/3 7/25/3 25/8/3
f 5/6/3 26/33/3 30/7/3
f 39/35/3 37/26/3 5/6/3
f 7/25/3 11/24/3 13/36/3
f 7/25/3 13/36/3 9/37/3
f 39/35/3 5/6/3 38/38/3
f 5/6/3 6/19/3 38/38/3
f 8/9/3 7/25/3 9/37/3
f 8/9/3 9/37/3 10/39/3
f 40/40/3 38/38/3 6/19/3
f 36/41/3 40/40/3 6/19/3
f 6/19/3 8/9/3 24/11/3
f 8/9/3 10/39/3 12/42/3
f 8/9/3 12/42/3 14/43/3
f 34/44/3 36/41/3 6/19/3
f 32/45/3 34/44/3 6/19/3
f 8/9/3 14/43/3 18/46/3
f 8/9/3 18/46/3 16/47/3
f 35/48/3 32/45/3 6/19/3
f 27/49/3 35/48/3 6/19/3
f 8/9/3 16/47/3 21/50/3
f 8/9/3 21/50/3 22/10/3
f 31/51/3 27/49/3 6/19/3
f 24/11/3 31/51/3 6/19/3
f 2/12/4 4/5/4 8/13/4
f 58/52/5 60/53/5 1/3/5
f 3/2/5 66/54/5 70/55/5
f 3/2/5 70/55/5 41/56/5
f 58/52/5 1/3/5 56/57/5
f 1/3/5 3/2/5 48/16/5
f 56/57/5 1/3/5 53/58/5
f 53/58/5 1/3/5 52/59/5
f 3/2/5 41/56/5 42/60/5
f 3/2/5 42/60/5 43/61/5
f 52/59/5 1/3/5 51/62/5
f 51/62/5 1/3/5 48/16/5
f 3/2/5 43/61/5 45/15/5
f 68/63/5 66/54/5 3/2/5
f 1/3/5 60/53/5 63/64/5
f 1/3/5 63/64/5 61/65/5
f 68/63/5 3/2/5 64/66/5
f 3/2/5 4/5/5 64/66/5
f 2/12/5 1/3/5 61/65/5
f 2/12/5 61/65/5 62/67/5
f 67/68/5 64/66/5 4/5/5
f 65/69/5 67/68/5 4/5/5
f 4/5/5 2/12/5 47/18/5
f 2/12/5 62/67/5 59/70/5
f 2/12/5 59/70/5 57/71/5
f 69/72/5 65/69/5 4/5/5
f 71/73/5 69/72/5 4/5/5
f 2/12/5 57/71/5 55/74/5
f 2/12/5 55/74/5 54/75/5
f 72/76/5 71/73/5 4/5/5
f 44/77/5 72/76/5 4/5/5
f 2/12/5 54/75/5 50/78/5
f 2/12/5 50/78/5 49/17/5
f 46/79/5 44/77/5 4/5/5
f 47/18/5 46/79/5 4/5/5
f 5/6/6 1/3/6 2/12/6
f 40/20/7 62/20/7 61/20/7
f 36/20/8 59/20/8 62/20/8
f 34/20/9 57/20/9 59/20/9
f 32/20/10 55/20/10 57/20/10
f 35/20/11 54/20/11 55/20/11
f 27/20/12 50/20/12 54/20/12
f 31/20/13 49/20/13 50/20/13
f 24/20/14 47/20/14 49/20/14
f 24/20/15 22/20/15 46/20/15
f 22/20/16 21/20/16 44/20/16
f 21/20/17 16/20/17 72/20/17
f 16/20/18 18/20/18 71/20/18
f 18/20/19 14/20/19 69/20/19
f 14/20/20 12/20/20 65/20/20
f 12/20/21 10/20/21 67/20/21
f 64/20/22 67/20/22 10/20/22
f 68/20/23 64/20/23 9/20/23
f 66/20/24 68/20/24 13/20/24
f 70/20/25 66/20/25 11/20/25
f 15/20/26 19/20/26 41/20/26
f 42/20/27 41/20/27 19/20/27
f 43/20/28 42/20/28 17/20/28
f 45/20/29 43/20/29 20/20/29
f 48/20/30 45/20/30 23/20/30
f 30/20/31 51/20/31 48/20/31
f 26/20/32 52/20/32 51/20/32
f 29/20/33 53/20/33 52/20/33
f 28/20/34 56/20/34 53/20/34
f 33/20/35 58/20/35 56/20/35
f 37/20/36 60/20/36 58/20/36
f 39/20/37 63/20/37 60/20/37
f 38/20/38 61/20/38 63/20/38
