# Blender 4.4.1
# www.blender.org
mtllib pin.mtl
o 球
v 0.000000 1.570987 0.277241
v 0.000000 1.708380 0.414313
v 0.000000 1.887707 0.488309
v 0.000000 1.984704 0.497700
v 0.000000 2.081666 0.487965
v 0.000000 2.260730 0.413332
v 0.018943 1.496440 0.096097
v 0.037157 1.524890 0.187618
v 0.053944 1.570977 0.271928
v 0.068658 1.632929 0.345789
v 0.080733 1.708366 0.406361
v 0.089706 1.794389 0.451317
v 0.095231 1.887691 0.478930
v 0.097097 1.984687 0.488137
v 0.095231 2.081650 0.478585
v 0.089706 2.174853 0.450642
v 0.080733 2.260715 0.405380
v 0.068658 2.335937 0.344541
v 0.053944 2.397626 0.270460
v 0.037157 2.443413 0.185986
v 0.018943 2.471539 0.094365
v 0.037157 1.496430 0.090571
v 0.072887 1.524871 0.176779
v 0.105815 1.570949 0.256193
v 0.134677 1.632894 0.325762
v 0.158363 1.708324 0.382812
v 0.175964 1.794342 0.425151
v 0.186802 1.887641 0.451152
v 0.190462 1.984637 0.459815
v 0.186802 2.081600 0.450807
v 0.175964 2.174807 0.424476
v 0.158363 2.260674 0.381831
v 0.134677 2.335901 0.324514
v 0.105815 2.397598 0.254725
v 0.072887 2.443394 0.175148
v 0.037157 2.471529 0.088839
v 0.053944 1.496414 0.081599
v 0.105815 1.524840 0.159179
v 0.153619 1.570904 0.230641
v 0.195520 1.632836 0.293241
v 0.229908 1.708256 0.344571
v 0.255460 1.794267 0.382660
v 0.271195 1.887561 0.406043
v 0.276508 1.984555 0.413822
v 0.271195 2.081520 0.405699
v 0.255460 2.174731 0.381984
v 0.229908 2.260606 0.343590
v 0.195520 2.335843 0.291992
v 0.153619 2.397553 0.229173
v 0.105815 2.443363 0.157547
v 0.053944 2.471513 0.079867
v 0.068658 1.496392 0.069523
v 0.134677 1.524798 0.135492
v 0.195520 1.570843 0.196254
v 0.248850 1.632758 0.249474
v 0.292617 1.708165 0.293107
v 0.325139 1.794165 0.325476
v 0.345165 1.887453 0.345337
v 0.351928 1.984445 0.351927
v 0.345165 2.081413 0.344993
v 0.325139 2.174630 0.324800
v 0.292617 2.260514 0.292126
v 0.248850 2.335765 0.248226
v 0.195520 2.397492 0.194786
v 0.134677 2.443321 0.133861
v 0.068658 2.471491 0.067792
v 0.080733 1.496366 0.054810
v 0.158363 1.524746 0.106630
v 0.229908 1.570768 0.154353
v 0.292617 1.632664 0.196144
v 0.344081 1.708054 0.230398
v 0.382323 1.794041 0.255797
v 0.405871 1.887322 0.271366
v 0.413823 1.984311 0.276507
v 0.405871 2.081281 0.271022
v 0.382323 2.174506 0.255122
v 0.344081 2.260403 0.229417
v 0.292617 2.335671 0.194896
v 0.229908 2.397417 0.152885
v 0.158363 2.443269 0.104999
v 0.080733 2.471465 0.053078
v 0.000000 1.486719 0.000883
v 0.089706 1.496337 0.038023
v 0.175964 1.524688 0.073702
v 0.255460 1.570683 0.106549
v 0.325139 1.632556 0.135301
v 0.382323 1.707927 0.158853
v 0.424814 1.793900 0.176301
v 0.450980 1.887172 0.186974
v 0.459815 1.984158 0.190461
v 0.450980 2.081131 0.186630
v 0.424814 2.174365 0.175626
v 0.382323 2.260276 0.157872
v 0.325139 2.335563 0.134052
v 0.255460 2.397332 0.105081
v 0.175964 2.443211 0.072071
v 0.089706 2.471435 0.036291
v 0.095231 1.496304 0.019808
v 0.186802 1.524624 0.037973
v 0.271195 1.570591 0.054678
v 0.345165 1.632438 0.069282
v 0.405871 1.707789 0.081223
v 0.450980 1.793747 0.090043
v 0.478758 1.887010 0.095403
v 0.488137 1.983992 0.097096
v 0.478758 2.080969 0.095058
v 0.450980 2.174212 0.089368
v 0.405871 2.260138 0.080242
v 0.345165 2.335445 0.068033
v 0.271195 2.397240 0.053210
v 0.186802 2.443147 0.036342
v 0.095231 2.471403 0.018077
v 0.097097 1.496271 0.000866
v 0.190462 1.524559 0.000816
v 0.276508 1.570496 0.000734
v 0.351927 1.632316 0.000624
v 0.413823 1.707645 0.000490
v 0.459815 1.793588 0.000338
v 0.488137 1.886840 0.000172
v 0.497701 1.983820 -0.000000
v 0.488137 2.080800 -0.000172
v 0.459815 2.174052 -0.000338
v 0.413823 2.259995 -0.000491
v 0.351927 2.335324 -0.000624
v 0.276508 2.397144 -0.000734
v 0.190462 2.443081 -0.000816
v 0.097097 2.471369 -0.000866
v 0.095231 1.496237 -0.018077
v 0.186802 1.524493 -0.036342
v 0.271195 1.570400 -0.053210
v 0.345165 1.632195 -0.068033
v 0.405871 1.707502 -0.080242
v 0.450980 1.793428 -0.089368
v 0.478758 1.886671 -0.095059
v 0.488137 1.983647 -0.097096
v 0.478758 2.080631 -0.095403
v 0.450980 2.173893 -0.090043
v 0.405871 2.259851 -0.081223
v 0.345165 2.335202 -0.069282
v 0.271195 2.397048 -0.054678
v 0.186802 2.443016 -0.037973
v 0.095231 2.471336 -0.019808
v 0.089706 1.496205 -0.036291
v 0.175964 1.524429 -0.072071
v 0.255460 1.570308 -0.105081
v 0.325139 1.632077 -0.134052
v 0.382322 1.707364 -0.157872
v 0.424814 1.793275 -0.175626
v 0.450980 1.886509 -0.186630
v 0.459815 1.983482 -0.190462
v 0.450980 2.080468 -0.186974
v 0.424814 2.173740 -0.176301
v 0.382322 2.259713 -0.158853
v 0.325139 2.335084 -0.135301
v 0.255460 2.396956 -0.106549
v 0.175964 2.442952 -0.073702
v 0.089706 2.471303 -0.038023
v 0.080733 1.496175 -0.053078
v 0.158363 1.524371 -0.104999
v 0.229908 1.570223 -0.152885
v 0.292617 1.631969 -0.194896
v 0.344081 1.707237 -0.229417
v 0.382323 1.793134 -0.255121
v 0.405871 1.886359 -0.271022
v 0.413823 1.983329 -0.276507
v 0.405871 2.080318 -0.271366
v 0.382323 2.173599 -0.255797
v 0.344081 2.259586 -0.230398
v 0.292617 2.334976 -0.196144
v 0.229908 2.396872 -0.154353
v 0.158363 2.442894 -0.106630
v 0.080733 2.471273 -0.054810
v 0.068658 1.496149 -0.067792
v 0.134677 1.524319 -0.133861
v 0.195520 1.570148 -0.194786
v 0.248850 1.631874 -0.248226
v 0.292617 1.707126 -0.292126
v 0.325139 1.793010 -0.324800
v 0.345165 1.886227 -0.344993
v 0.351927 1.983195 -0.351927
v 0.345165 2.080187 -0.345337
v 0.325139 2.173475 -0.325476
v 0.292617 2.259475 -0.293107
v 0.248850 2.334882 -0.249474
v 0.195520 2.396797 -0.196254
v 0.134677 2.442842 -0.135492
v 0.068658 2.471247 -0.069523
v 0.053944 1.496127 -0.079867
v 0.105815 1.524277 -0.157547
v 0.153619 1.570087 -0.229173
v 0.195520 1.631797 -0.291992
v 0.229908 1.707034 -0.343590
v 0.255460 1.792909 -0.381984
v 0.271195 1.886119 -0.405699
v 0.276507 1.983085 -0.413822
v 0.271195 2.080079 -0.406043
v 0.255460 2.173373 -0.382660
v 0.229908 2.259383 -0.344571
v 0.195520 2.334804 -0.293241
v 0.153619 2.396736 -0.230641
v 0.105815 2.442800 -0.159179
v 0.053944 2.471226 -0.081599
v 0.037157 1.496111 -0.088839
v 0.072887 1.524246 -0.175148
v 0.105815 1.570042 -0.254725
v 0.134677 1.631739 -0.324514
v 0.158363 1.706966 -0.381831
v 0.175964 1.792833 -0.424475
v 0.186802 1.886039 -0.450807
v 0.190462 1.983003 -0.459815
v 0.186802 2.079998 -0.451152
v 0.175964 2.173298 -0.425151
v 0.158363 2.259315 -0.382812
v 0.134677 2.334746 -0.325762
v 0.105815 2.396691 -0.256193
v 0.072887 2.442769 -0.176779
v 0.037157 2.471210 -0.090571
v 0.018943 1.496101 -0.094365
v 0.037157 1.524227 -0.185986
v 0.053944 1.570014 -0.270460
v 0.068658 1.631703 -0.344540
v 0.080733 1.706925 -0.405380
v 0.089706 1.792787 -0.450642
v 0.095231 1.885990 -0.478585
v 0.097096 1.982953 -0.488137
v 0.095231 2.079949 -0.478929
v 0.089706 2.173251 -0.451317
v 0.080733 2.259274 -0.406361
v 0.068658 2.334710 -0.345789
v 0.053944 2.396663 -0.271928
v 0.037157 2.442750 -0.187617
v 0.018943 2.471200 -0.096097
v -0.000000 1.496098 -0.096230
v -0.000000 1.524220 -0.189646
v -0.000000 1.570004 -0.275773
v -0.000000 1.631691 -0.351303
v -0.000000 1.706910 -0.413332
v 0.000000 1.792771 -0.459477
v -0.000000 1.885973 -0.487964
v -0.000000 1.982936 -0.497700
v -0.000000 2.079933 -0.488309
v 0.000000 2.173236 -0.460153
v -0.000000 2.259259 -0.414313
v -0.000000 2.334698 -0.352551
v -0.000000 2.396653 -0.277241
v -0.000000 2.442743 -0.191277
v -0.000000 2.471197 -0.097962
v -0.018943 1.496101 -0.094365
v -0.037157 1.524227 -0.185986
v -0.053944 1.570014 -0.270460
v -0.068658 1.631703 -0.344540
v -0.080733 1.706925 -0.405380
v -0.089706 1.792787 -0.450642
v -0.095231 1.885990 -0.478585
v -0.097097 1.982953 -0.488136
v -0.095231 2.079949 -0.478929
v -0.089706 2.173251 -0.451317
v -0.080733 2.259274 -0.406361
v -0.068658 2.334710 -0.345789
v -0.053944 2.396663 -0.271928
v -0.037157 2.442750 -0.187617
v -0.018943 2.471200 -0.096097
v -0.037157 1.496111 -0.088839
v -0.072887 1.524246 -0.175148
v -0.105815 1.570042 -0.254725
v -0.134677 1.631739 -0.324514
v -0.158363 1.706966 -0.381831
v -0.175964 1.792833 -0.424475
v -0.186802 1.886039 -0.450807
v -0.190462 1.983003 -0.459814
v -0.186802 2.079998 -0.451152
v -0.175964 2.173298 -0.425151
v -0.158363 2.259315 -0.382812
v -0.134677 2.334746 -0.325762
v -0.105815 2.396691 -0.256193
v -0.072887 2.442769 -0.176779
v -0.037157 2.471210 -0.090571
v -0.053944 1.496127 -0.079867
v -0.105815 1.524277 -0.157547
v -0.153619 1.570087 -0.229173
v -0.195520 1.631797 -0.291992
v -0.229908 1.707034 -0.343590
v -0.255460 1.792909 -0.381984
v -0.271195 1.886119 -0.405698
v -0.276508 1.983085 -0.413822
v -0.271195 2.080079 -0.406043
v -0.255460 2.173373 -0.382660
v -0.229908 2.259383 -0.344571
v -0.195520 2.334804 -0.293241
v -0.153619 2.396736 -0.230641
v -0.105815 2.442800 -0.159179
v -0.053944 2.471226 -0.081599
v -0.068658 1.496149 -0.067792
v -0.134677 1.524319 -0.133861
v -0.195520 1.570148 -0.194786
v -0.248850 1.631874 -0.248226
v -0.292617 1.707126 -0.292126
v -0.325139 1.793010 -0.324800
v -0.345165 1.886227 -0.344992
v -0.351927 1.983195 -0.351927
v -0.345165 2.080187 -0.345337
v -0.325139 2.173475 -0.325476
v -0.292617 2.259475 -0.293107
v -0.248850 2.334882 -0.249474
v -0.195520 2.396797 -0.196254
v -0.134677 2.442842 -0.135492
v -0.068658 2.471247 -0.069523
v 0.000000 2.480921 -0.000883
v -0.080733 1.496175 -0.053078
v -0.158363 1.524371 -0.104999
v -0.229908 1.570223 -0.152885
v -0.292617 1.631969 -0.194896
v -0.344081 1.707237 -0.229417
v -0.382322 1.793134 -0.255121
v -0.405871 1.886359 -0.271022
v -0.413823 1.983329 -0.276507
v -0.405871 2.080318 -0.271366
v -0.382322 2.173599 -0.255797
v -0.344081 2.259586 -0.230398
v -0.292617 2.334976 -0.196144
v -0.229908 2.396872 -0.154353
v -0.158363 2.442894 -0.106630
v -0.080733 2.471273 -0.054810
v -0.089705 1.496205 -0.036291
v -0.175964 1.524429 -0.072071
v -0.255460 1.570308 -0.105081
v -0.325139 1.632077 -0.134052
v -0.382322 1.707364 -0.157872
v -0.424814 1.793275 -0.175626
v -0.450980 1.886509 -0.186629
v -0.459815 1.983482 -0.190461
v -0.450980 2.080468 -0.186974
v -0.424814 2.173740 -0.176301
v -0.382322 2.259713 -0.158853
v -0.325139 2.335084 -0.135301
v -0.255460 2.396956 -0.106549
v -0.175964 2.442952 -0.073702
v -0.089705 2.471303 -0.038023
v -0.095231 1.496237 -0.018077
v -0.186802 1.524493 -0.036341
v -0.271194 1.570400 -0.053210
v -0.345165 1.632195 -0.068033
v -0.405871 1.707502 -0.080242
v -0.450980 1.793428 -0.089368
v -0.478758 1.886671 -0.095058
v -0.488137 1.983647 -0.097096
v -0.478758 2.080631 -0.095403
v -0.450980 2.173893 -0.090043
v -0.405871 2.259851 -0.081223
v -0.345165 2.335202 -0.069282
v -0.271194 2.397048 -0.054678
v -0.186802 2.443016 -0.037973
v -0.095231 2.471336 -0.019808
v -0.097097 1.496271 0.000866
v -0.190462 1.524559 0.000816
v -0.276507 1.570496 0.000734
v -0.351927 1.632316 0.000624
v -0.413823 1.707645 0.000491
v -0.459815 1.793588 0.000338
v -0.488137 1.886840 0.000172
v -0.497700 1.983820 0.000000
v -0.488137 2.080800 -0.000172
v -0.459815 2.174052 -0.000338
v -0.413823 2.259995 -0.000490
v -0.351927 2.335324 -0.000624
v -0.276507 2.397144 -0.000734
v -0.190462 2.443081 -0.000816
v -0.097097 2.471369 -0.000866
v -0.095231 1.496304 0.019808
v -0.186802 1.524624 0.037973
v -0.271194 1.570591 0.054678
v -0.345165 1.632438 0.069282
v -0.405871 1.707789 0.081223
v -0.450980 1.793747 0.090043
v -0.478758 1.887010 0.095403
v -0.488137 1.983992 0.097097
v -0.478758 2.080969 0.095059
v -0.450980 2.174212 0.089368
v -0.405871 2.260138 0.080242
v -0.345165 2.335445 0.068033
v -0.271194 2.397240 0.053210
v -0.186802 2.443147 0.036342
v -0.095231 2.471403 0.018077
v -0.089705 1.496337 0.038023
v -0.175964 1.524688 0.073702
v -0.255460 1.570683 0.106549
v -0.325139 1.632556 0.135301
v -0.382322 1.707927 0.158853
v -0.424814 1.793900 0.176301
v -0.450980 1.887172 0.186974
v -0.459815 1.984158 0.190462
v -0.450980 2.081131 0.186630
v -0.424814 2.174365 0.175626
v -0.382322 2.260276 0.157872
v -0.325139 2.335563 0.134052
v -0.255460 2.397332 0.105081
v -0.175964 2.443211 0.072071
v -0.089705 2.471435 0.036291
v -0.080733 1.496366 0.054810
v -0.158363 1.524746 0.106630
v -0.229907 1.570768 0.154353
v -0.292617 1.632664 0.196144
v -0.344081 1.708054 0.230398
v -0.382322 1.794041 0.255797
v -0.405871 1.887322 0.271366
v -0.413822 1.984311 0.276507
v -0.405871 2.081281 0.271022
v -0.382322 2.174506 0.255121
v -0.344081 2.260403 0.229417
v -0.292617 2.335671 0.194896
v -0.229907 2.397417 0.152885
v -0.158363 2.443269 0.104999
v -0.080733 2.471465 0.053078
v -0.068658 1.496392 0.069523
v -0.134677 1.524798 0.135492
v -0.195520 1.570843 0.196254
v -0.248850 1.632758 0.249474
v -0.292617 1.708165 0.293107
v -0.325138 1.794165 0.325476
v -0.345165 1.887453 0.345337
v -0.351927 1.984445 0.351927
v -0.345165 2.081413 0.344992
v -0.325138 2.174630 0.324800
v -0.292617 2.260514 0.292126
v -0.248850 2.335765 0.248226
v -0.195520 2.397492 0.194786
v -0.134677 2.443321 0.133861
v -0.068658 2.471491 0.067792
v -0.053944 1.496414 0.081599
v -0.105815 1.524840 0.159179
v -0.153619 1.570904 0.230641
v -0.195520 1.632836 0.293241
v -0.229907 1.708256 0.344571
v -0.255460 1.794267 0.382660
v -0.271194 1.887561 0.406043
v -0.276507 1.984555 0.413822
v -0.271194 2.081520 0.405698
v -0.255460 2.174731 0.381984
v -0.229907 2.260606 0.343590
v -0.195520 2.335843 0.291992
v -0.153619 2.397553 0.229173
v -0.105815 2.443363 0.157547
v -0.053944 2.471513 0.079867
v -0.037157 1.496430 0.090571
v -0.072887 1.524871 0.176779
v -0.105815 1.570949 0.256193
v -0.134677 1.632894 0.325762
v -0.158363 1.708324 0.382812
v -0.175964 1.794342 0.425151
v -0.186802 1.887641 0.451152
v -0.190461 1.984637 0.459814
v -0.186802 2.081600 0.450807
v -0.175964 2.174807 0.424475
v -0.158363 2.260674 0.381831
v -0.134677 2.335901 0.324514
v -0.105815 2.397598 0.254725
v -0.072887 2.443394 0.175148
v -0.037157 2.471529 0.088839
v -0.018943 1.496440 0.096097
v -0.037157 1.524890 0.187617
v -0.053944 1.570977 0.271928
v -0.068658 1.632929 0.345789
v -0.080733 1.708366 0.406361
v -0.089705 1.794389 0.451317
v -0.095231 1.887691 0.478929
v -0.097096 1.984687 0.488136
v -0.095231 2.081650 0.478585
v -0.089705 2.174853 0.450641
v -0.080733 2.260715 0.405380
v -0.068658 2.335937 0.344540
v -0.053944 2.397626 0.270460
v -0.037157 2.443413 0.185986
v -0.018943 2.471539 0.094365
v 0.000000 1.496443 0.097962
v 0.000000 1.524897 0.191277
v 0.000000 1.632941 0.352551
v 0.000000 1.794404 0.460152
v 0.000000 2.174869 0.459477
v 0.000000 2.335948 0.351303
v 0.000000 2.397635 0.275773
v 0.000000 2.443420 0.189646
v 0.000000 2.471542 0.096230
v 0.000000 1.524993 0.458750
v 0.089338 1.524978 0.449950
v 0.175244 1.524932 0.423891
v 0.254414 1.524856 0.381574
v 0.323808 1.524755 0.324624
v 0.380758 1.524632 0.255230
v 0.423076 1.524491 0.176060
v 0.449135 1.524339 0.090155
v 0.457934 1.524180 0.000816
v 0.449135 1.524021 -0.088522
v 0.423076 1.523869 -0.174427
v 0.380758 1.523728 -0.253598
v 0.323808 1.523605 -0.322991
v 0.254414 1.523504 -0.379941
v 0.175244 1.523429 -0.422259
v 0.089338 1.523382 -0.448318
v 0.000000 1.523367 -0.457117
v -0.089338 1.523382 -0.448318
v -0.175244 1.523429 -0.422259
v -0.254414 1.523504 -0.379941
v -0.323808 1.523605 -0.322991
v -0.380758 1.523728 -0.253598
v -0.423076 1.523869 -0.174427
v -0.449135 1.524021 -0.088522
v -0.457934 1.524180 0.000816
v -0.449135 1.524339 0.090155
v -0.423076 1.524491 0.176060
v -0.380758 1.524632 0.255230
v -0.323808 1.524755 0.324624
v -0.254414 1.524856 0.381574
v -0.175244 1.524932 0.423891
v -0.089338 1.524978 0.449950
v 0.000000 0.057946 0.003420
vn 0.0975 0.0994 0.9903
vn 0.0285 -0.9561 0.2915
vn 0.0938 0.2910 0.9521
vn 0.0463 -0.8804 0.4720
vn 0.0865 0.4716 0.8775
vn 0.0623 -0.7708 0.6341
vn 0.0759 0.6344 0.7693
vn 0.0759 -0.6317 0.7715
vn 0.0623 0.7730 0.6313
vn 0.0865 -0.4685 0.8792
vn 0.0463 0.8820 0.4689
vn 0.0938 -0.2876 0.9531
vn 0.0286 0.9572 0.2881
vn 0.0975 -0.0959 0.9906
vn 0.0096 -0.9950 0.0997
vn 0.0097 0.9953 0.0961
vn 0.2889 -0.0960 0.9525
vn 0.0286 -0.9950 0.0959
vn 0.0285 0.9953 0.0924
vn 0.2889 0.0994 0.9522
vn 0.0845 -0.9562 0.2804
vn 0.2779 0.2909 0.9155
vn 0.1372 -0.8804 0.4539
vn 0.2562 0.4716 0.8438
vn 0.1846 -0.7708 0.6098
vn 0.2247 0.6343 0.7397
vn 0.2247 -0.6317 0.7419
vn 0.1846 0.7730 0.6070
vn 0.2562 -0.4686 0.8455
vn 0.1372 0.8820 0.4508
vn 0.2779 -0.2877 0.9165
vn 0.0846 0.9571 0.2770
vn 0.3649 0.6342 0.6816
vn 0.3649 -0.6318 0.6839
vn 0.2997 0.7729 0.5593
vn 0.4161 -0.4687 0.7792
vn 0.2228 0.8819 0.4153
vn 0.4512 -0.2878 0.8447
vn 0.1373 0.9571 0.2552
vn 0.4691 -0.0961 0.8779
vn 0.0464 -0.9950 0.0885
vn 0.0464 0.9953 0.0850
vn 0.4691 0.0992 0.8775
vn 0.1373 -0.9562 0.2586
vn 0.4512 0.2908 0.8437
vn 0.2228 -0.8805 0.4185
vn 0.4161 0.4715 0.7776
vn 0.2997 -0.7709 0.5621
vn 0.0624 -0.9950 0.0778
vn 0.0624 0.9953 0.0743
vn 0.6314 0.0990 0.7691
vn 0.1848 -0.9562 0.2268
vn 0.6073 0.2906 0.7394
vn 0.2999 -0.8806 0.3670
vn 0.5599 0.4713 0.6814
vn 0.4033 -0.7710 0.4928
vn 0.4911 0.6341 0.5973
vn 0.4911 -0.6320 0.5995
vn 0.4033 0.7728 0.4901
vn 0.5599 -0.4689 0.6831
vn 0.2999 0.8819 0.3639
vn 0.6073 -0.2880 0.7405
vn 0.1848 0.9570 0.2234
vn 0.6314 -0.0963 0.7695
vn 0.5984 -0.6321 0.4922
vn 0.4915 0.7726 0.4020
vn 0.6823 -0.4691 0.5608
vn 0.3654 0.8817 0.2983
vn 0.7400 -0.2882 0.6078
vn 0.2251 0.9570 0.1831
vn 0.7693 -0.0965 0.6315
vn 0.0760 -0.9950 0.0642
vn 0.0761 0.9953 0.0606
vn 0.7693 0.0988 0.6312
vn 0.2251 -0.9563 0.1865
vn 0.7399 0.2904 0.6067
vn 0.3654 -0.8807 0.3015
vn 0.6823 0.4711 0.5591
vn 0.4915 -0.7712 0.4047
vn 0.5984 0.6339 0.4900
vn 0.8777 0.0985 0.4690
vn 0.2569 -0.9564 0.1390
vn 0.8442 0.2901 0.4507
vn 0.4169 -0.8808 0.2244
vn 0.7784 0.4708 0.4152
vn 0.5607 -0.7713 0.3011
vn 0.6827 0.6337 0.3638
vn 0.6827 -0.6324 0.3660
vn 0.5607 0.7724 0.2983
vn 0.7784 -0.4693 0.4169
vn 0.4169 0.8816 0.2213
vn 0.8442 -0.2885 0.4517
vn 0.2569 0.9569 0.1356
vn 0.8777 -0.0968 0.4693
vn 0.0868 -0.9951 0.0481
vn 0.0867 0.9952 0.0446
vn 0.6084 0.7722 0.1832
vn 0.8446 -0.4696 0.2570
vn 0.4524 0.8815 0.1357
vn 0.9160 -0.2888 0.2784
vn 0.2787 0.9568 0.0829
vn 0.9524 -0.0972 0.2891
vn 0.0941 -0.9951 0.0303
vn 0.0941 0.9952 0.0268
vn 0.9524 0.0982 0.2887
vn 0.2787 -0.9565 0.0862
vn 0.9160 0.2898 0.2774
vn 0.4524 -0.8810 0.1388
vn 0.8446 0.4705 0.2554
vn 0.6084 -0.7716 0.1859
vn 0.7408 0.6334 0.2236
vn 0.7408 -0.6326 0.2258
vn 0.9526 0.2895 0.0933
vn 0.4704 -0.8811 0.0479
vn 0.8784 0.4702 0.0857
vn 0.6327 -0.7718 0.0637
vn 0.7704 0.6332 0.0748
vn 0.7704 -0.6329 0.0770
vn 0.6327 0.7720 0.0609
vn 0.8784 -0.4699 0.0873
vn 0.4704 0.8813 0.0448
vn 0.9526 -0.2892 0.0943
vn 0.2899 0.9567 0.0268
vn 0.9904 -0.0975 0.0977
vn 0.0979 -0.9951 0.0114
vn 0.0979 0.9952 0.0079
vn 0.9904 0.0978 0.0974
vn 0.2898 -0.9566 0.0302
vn 0.4705 0.8811 -0.0479
vn 0.9526 -0.2895 -0.0933
vn 0.2899 0.9566 -0.0302
vn 0.9904 -0.0978 -0.0974
vn 0.0979 -0.9952 -0.0079
vn 0.0979 0.9951 -0.0114
vn 0.9904 0.0975 -0.0977
vn 0.2898 -0.9567 -0.0268
vn 0.9526 0.2892 -0.0943
vn 0.4704 -0.8813 -0.0448
vn 0.8784 0.4699 -0.0873
vn 0.6327 -0.7720 -0.0609
vn 0.7704 0.6329 -0.0770
vn 0.7704 -0.6332 -0.0748
vn 0.6327 0.7718 -0.0637
vn 0.8784 -0.4702 -0.0857
vn 0.4524 -0.8815 -0.1357
vn 0.8446 0.4696 -0.2570
vn 0.6084 -0.7722 -0.1832
vn 0.7408 0.6326 -0.2258
vn 0.7408 -0.6334 -0.2236
vn 0.6084 0.7716 -0.1859
vn 0.8446 -0.4705 -0.2554
vn 0.4524 0.8810 -0.1388
vn 0.9160 -0.2898 -0.2774
vn 0.2787 0.9565 -0.0862
vn 0.9524 -0.0982 -0.2887
vn 0.0941 -0.9952 -0.0268
vn 0.0941 0.9951 -0.0303
vn 0.9524 0.0972 -0.2891
vn 0.2787 -0.9568 -0.0828
vn 0.9160 0.2888 -0.2784
vn 0.8442 -0.2901 -0.4507
vn 0.2569 0.9564 -0.1390
vn 0.8777 -0.0985 -0.4690
vn 0.0868 -0.9952 -0.0446
vn 0.0867 0.9951 -0.0481
vn 0.8777 0.0968 -0.4693
vn 0.2569 -0.9569 -0.1356
vn 0.8442 0.2885 -0.4518
vn 0.4169 -0.8816 -0.2213
vn 0.7784 0.4693 -0.4169
vn 0.5607 -0.7724 -0.2983
vn 0.6827 0.6324 -0.3660
vn 0.6827 -0.6337 -0.3638
vn 0.5607 0.7713 -0.3011
vn 0.7784 -0.4708 -0.4152
vn 0.4169 0.8808 -0.2244
vn 0.6823 0.4691 -0.5608
vn 0.4915 -0.7726 -0.4020
vn 0.5984 0.6321 -0.4922
vn 0.5984 -0.6339 -0.4900
vn 0.4915 0.7712 -0.4047
vn 0.6823 -0.4711 -0.5591
vn 0.3654 0.8807 -0.3015
vn 0.7400 -0.2904 -0.6067
vn 0.2251 0.9563 -0.1865
vn 0.7693 -0.0988 -0.6312
vn 0.0760 -0.9953 -0.0606
vn 0.0760 0.9950 -0.0642
vn 0.7693 0.0965 -0.6315
vn 0.2251 -0.9570 -0.1831
vn 0.7399 0.2882 -0.6078
vn 0.3654 -0.8817 -0.2983
vn 0.1848 0.9562 -0.2268
vn 0.6314 -0.0990 -0.7691
vn 0.0624 -0.9953 -0.0743
vn 0.0624 0.9950 -0.0778
vn 0.6314 0.0963 -0.7695
vn 0.1848 -0.9570 -0.2234
vn 0.6073 0.2880 -0.7405
vn 0.2999 -0.8819 -0.3639
vn 0.5599 0.4689 -0.6831
vn 0.4033 -0.7728 -0.4901
vn 0.4911 0.6320 -0.5995
vn 0.4911 -0.6341 -0.5973
vn 0.4033 0.7710 -0.4928
vn 0.5599 -0.4713 -0.6814
vn 0.2999 0.8806 -0.3670
vn 0.6073 -0.2906 -0.7394
vn 0.2997 -0.7729 -0.5593
vn 0.3649 0.6318 -0.6839
vn 0.3649 -0.6342 -0.6816
vn 0.2997 0.7709 -0.5621
vn 0.4161 -0.4715 -0.7776
vn 0.2228 0.8805 -0.4185
vn 0.4512 -0.2908 -0.8437
vn 0.1373 0.9562 -0.2586
vn 0.4691 -0.0992 -0.8775
vn 0.0464 -0.9953 -0.0850
vn 0.0464 0.9950 -0.0885
vn 0.4691 0.0961 -0.8779
vn 0.1373 -0.9571 -0.2552
vn 0.4512 0.2878 -0.8447
vn 0.2228 -0.8819 -0.4153
vn 0.4161 0.4687 -0.7792
vn 0.2889 -0.0994 -0.9522
vn 0.0286 -0.9953 -0.0924
vn 0.0286 0.9950 -0.0959
vn 0.2889 0.0960 -0.9525
vn 0.0845 -0.9571 -0.2770
vn 0.2779 0.2877 -0.9165
vn 0.1372 -0.8820 -0.4508
vn 0.2562 0.4686 -0.8455
vn 0.1846 -0.7730 -0.6070
vn 0.2247 0.6317 -0.7419
vn 0.2247 -0.6343 -0.7397
vn 0.1845 0.7708 -0.6098
vn 0.2562 -0.4716 -0.8438
vn 0.1372 0.8804 -0.4539
vn 0.2779 -0.2909 -0.9155
vn 0.0846 0.9562 -0.2804
vn 0.0759 0.6317 -0.7715
vn 0.0759 -0.6344 -0.7693
vn 0.0623 0.7708 -0.6341
vn 0.0865 -0.4716 -0.8775
vn 0.0463 0.8804 -0.4720
vn 0.0938 -0.2910 -0.9521
vn 0.0285 0.9561 -0.2915
vn 0.0975 -0.0994 -0.9903
vn 0.0096 -0.9953 -0.0961
vn 0.0096 0.9950 -0.0997
vn 0.0975 0.0959 -0.9906
vn 0.0285 -0.9572 -0.2881
vn 0.0938 0.2876 -0.9531
vn 0.0463 -0.8820 -0.4689
vn 0.0865 0.4685 -0.8792
vn 0.0623 -0.7730 -0.6313
vn -0.0096 0.9950 -0.0997
vn -0.0975 0.0959 -0.9906
vn -0.0285 -0.9572 -0.2881
vn -0.0938 0.2876 -0.9531
vn -0.0463 -0.8820 -0.4689
vn -0.0865 0.4685 -0.8792
vn -0.0623 -0.7730 -0.6313
vn -0.0759 0.6317 -0.7715
vn -0.0759 -0.6344 -0.7693
vn -0.0623 0.7708 -0.6341
vn -0.0865 -0.4716 -0.8775
vn -0.0463 0.8804 -0.4720
vn -0.0938 -0.2910 -0.9521
vn -0.0285 0.9561 -0.2915
vn -0.0975 -0.0994 -0.9903
vn -0.0096 -0.9953 -0.0961
vn -0.1845 0.7708 -0.6098
vn -0.2562 -0.4716 -0.8438
vn -0.1372 0.8804 -0.4539
vn -0.2779 -0.2909 -0.9155
vn -0.0846 0.9561 -0.2804
vn -0.2889 -0.0994 -0.9522
vn -0.0285 -0.9953 -0.0924
vn -0.0285 0.9950 -0.0959
vn -0.2889 0.0960 -0.9525
vn -0.0845 -0.9571 -0.2770
vn -0.2779 0.2877 -0.9165
vn -0.1372 -0.8820 -0.4508
vn -0.2562 0.4686 -0.8455
vn -0.1846 -0.7730 -0.6070
vn -0.2247 0.6317 -0.7419
vn -0.2247 -0.6343 -0.7397
vn -0.1373 -0.9571 -0.2552
vn -0.4512 0.2878 -0.8447
vn -0.2228 -0.8819 -0.4153
vn -0.4161 0.4687 -0.7792
vn -0.2997 -0.7729 -0.5593
vn -0.3649 0.6318 -0.6839
vn -0.3649 -0.6342 -0.6816
vn -0.2997 0.7709 -0.5621
vn -0.4161 -0.4715 -0.7776
vn -0.2228 0.8805 -0.4185
vn -0.4512 -0.2908 -0.8437
vn -0.1373 0.9562 -0.2586
vn -0.4691 -0.0992 -0.8775
vn -0.0464 -0.9953 -0.0850
vn -0.0464 0.9950 -0.0885
vn -0.4691 0.0961 -0.8779
vn -0.5599 -0.4713 -0.6814
vn -0.2999 0.8806 -0.3670
vn -0.6073 -0.2906 -0.7394
vn -0.1848 0.9562 -0.2268
vn -0.6314 -0.0990 -0.7691
vn -0.0624 -0.9953 -0.0743
vn -0.0624 0.9950 -0.0778
vn -0.6314 0.0963 -0.7695
vn -0.1848 -0.9570 -0.2234
vn -0.6073 0.2880 -0.7405
vn -0.2999 -0.8819 -0.3639
vn -0.5599 0.4689 -0.6831
vn -0.4033 -0.7728 -0.4901
vn -0.4911 0.6320 -0.5995
vn -0.4911 -0.6341 -0.5973
vn -0.4033 0.7710 -0.4928
vn -0.7399 0.2882 -0.6078
vn -0.3654 -0.8817 -0.2983
vn -0.6823 0.4691 -0.5608
vn -0.4915 -0.7726 -0.4020
vn -0.5984 0.6321 -0.4922
vn -0.5984 -0.6339 -0.4900
vn -0.4915 0.7712 -0.4047
vn -0.6823 -0.4711 -0.5591
vn -0.3654 0.8807 -0.3015
vn -0.7399 -0.2904 -0.6067
vn -0.2251 0.9563 -0.1865
vn -0.7693 -0.0988 -0.6312
vn -0.0760 -0.9953 -0.0606
vn -0.0760 0.9950 -0.0642
vn -0.7693 0.0965 -0.6315
vn -0.2251 -0.9570 -0.1831
vn -0.4169 0.8808 -0.2244
vn -0.8442 -0.2901 -0.4507
vn -0.2569 0.9564 -0.1390
vn -0.8777 -0.0985 -0.4690
vn -0.0868 -0.9952 -0.0446
vn -0.0867 0.9951 -0.0481
vn -0.8777 0.0968 -0.4693
vn -0.2569 -0.9569 -0.1356
vn -0.8442 0.2885 -0.4517
vn -0.4169 -0.8816 -0.2213
vn -0.7784 0.4693 -0.4169
vn -0.5607 -0.7724 -0.2983
vn -0.6827 0.6324 -0.3660
vn -0.6827 -0.6337 -0.3638
vn -0.5607 0.7713 -0.3011
vn -0.7784 -0.4708 -0.4152
vn -0.4524 -0.8815 -0.1357
vn -0.8446 0.4696 -0.2570
vn -0.6084 -0.7722 -0.1832
vn -0.7408 0.6326 -0.2258
vn -0.7408 -0.6334 -0.2236
vn -0.6084 0.7716 -0.1859
vn -0.8446 -0.4705 -0.2554
vn -0.4524 0.8810 -0.1388
vn -0.9160 -0.2898 -0.2774
vn -0.2787 0.9565 -0.0862
vn -0.9524 -0.0982 -0.2887
vn -0.0941 -0.9952 -0.0268
vn -0.0941 0.9951 -0.0303
vn -0.9524 0.0972 -0.2891
vn -0.2787 -0.9568 -0.0828
vn -0.9160 0.2888 -0.2784
vn -0.9526 -0.2895 -0.0933
vn -0.2899 0.9566 -0.0302
vn -0.9904 -0.0978 -0.0974
vn -0.0979 -0.9952 -0.0079
vn -0.0979 0.9951 -0.0114
vn -0.9904 0.0975 -0.0977
vn -0.2898 -0.9567 -0.0268
vn -0.9526 0.2892 -0.0943
vn -0.4704 -0.8813 -0.0448
vn -0.8784 0.4699 -0.0873
vn -0.6327 -0.7720 -0.0609
vn -0.7704 0.6329 -0.0770
vn -0.7704 -0.6332 -0.0748
vn -0.6327 0.7718 -0.0637
vn -0.8784 -0.4702 -0.0857
vn -0.4705 0.8811 -0.0479
vn -0.8784 0.4702 0.0857
vn -0.6327 -0.7718 0.0637
vn -0.7704 0.6332 0.0748
vn -0.7704 -0.6329 0.0770
vn -0.6327 0.7720 0.0609
vn -0.8784 -0.4699 0.0873
vn -0.4704 0.8813 0.0448
vn -0.9526 -0.2892 0.0943
vn -0.2898 0.9567 0.0268
vn -0.9904 -0.0975 0.0977
vn -0.0979 -0.9951 0.0114
vn -0.0979 0.9952 0.0079
vn -0.9904 0.0978 0.0974
vn -0.2898 -0.9566 0.0302
vn -0.9526 0.2895 0.0933
vn -0.4705 -0.8811 0.0479
vn -0.2787 0.9568 0.0829
vn -0.9524 -0.0972 0.2891
vn -0.0941 -0.9951 0.0303
vn -0.0941 0.9952 0.0268
vn -0.9524 0.0982 0.2887
vn -0.2787 -0.9565 0.0862
vn -0.9160 0.2898 0.2774
vn -0.4524 -0.8810 0.1388
vn -0.8446 0.4705 0.2554
vn -0.6084 -0.7716 0.1859
vn -0.7408 0.6334 0.2236
vn -0.7408 -0.6326 0.2258
vn -0.6084 0.7722 0.1832
vn -0.8446 -0.4696 0.2570
vn -0.4524 0.8815 0.1357
vn -0.9160 -0.2888 0.2784
vn -0.6827 0.6337 0.3638
vn -0.6827 -0.6324 0.3661
vn -0.5607 0.7724 0.2983
vn -0.7784 -0.4693 0.4169
vn -0.4169 0.8816 0.2213
vn -0.8442 -0.2885 0.4517
vn -0.2569 0.9569 0.1356
vn -0.8777 -0.0968 0.4693
vn -0.0868 -0.9951 0.0481
vn -0.0867 0.9952 0.0446
vn -0.8777 0.0985 0.4690
vn -0.2569 -0.9564 0.1390
vn -0.8442 0.2901 0.4507
vn -0.4169 -0.8808 0.2244
vn -0.7784 0.4708 0.4152
vn -0.5607 -0.7713 0.3011
vn -0.0760 -0.9950 0.0642
vn -0.0761 0.9953 0.0606
vn -0.7693 0.0988 0.6312
vn -0.2251 -0.9563 0.1865
vn -0.7399 0.2904 0.6067
vn -0.3654 -0.8807 0.3015
vn -0.6823 0.4711 0.5591
vn -0.4915 -0.7712 0.4047
vn -0.5984 0.6339 0.4900
vn -0.5984 -0.6321 0.4922
vn -0.4915 0.7726 0.4020
vn -0.6823 -0.4691 0.5608
vn -0.3654 0.8817 0.2983
vn -0.7399 -0.2882 0.6078
vn -0.2251 0.9570 0.1831
vn -0.7693 -0.0965 0.6315
vn -0.4911 -0.6320 0.5995
vn -0.4033 0.7728 0.4901
vn -0.5599 -0.4689 0.6831
vn -0.2999 0.8819 0.3639
vn -0.6073 -0.2880 0.7405
vn -0.1848 0.9570 0.2234
vn -0.6314 -0.0963 0.7695
vn -0.0624 -0.9950 0.0778
vn -0.0624 0.9953 0.0743
vn -0.6314 0.0990 0.7691
vn -0.1848 -0.9562 0.2268
vn -0.6073 0.2906 0.7394
vn -0.2999 -0.8806 0.3670
vn -0.5599 0.4713 0.6814
vn -0.4033 -0.7710 0.4928
vn -0.4911 0.6341 0.5973
vn -0.4691 0.0992 0.8775
vn -0.1373 -0.9562 0.2586
vn -0.4512 0.2908 0.8437
vn -0.2228 -0.8805 0.4185
vn -0.4161 0.4715 0.7776
vn -0.2997 -0.7709 0.5621
vn -0.3649 0.6342 0.6816
vn -0.3649 -0.6318 0.6839
vn -0.2997 0.7729 0.5593
vn -0.4161 -0.4687 0.7792
vn -0.2228 0.8819 0.4153
vn -0.4512 -0.2878 0.8447
vn -0.1373 0.9571 0.2552
vn -0.4691 -0.0961 0.8779
vn -0.0464 -0.9950 0.0885
vn -0.0464 0.9953 0.0850
vn -0.1846 0.7730 0.6070
vn -0.2562 -0.4686 0.8455
vn -0.1372 0.8820 0.4508
vn -0.2779 -0.2877 0.9165
vn -0.0845 0.9571 0.2770
vn -0.2889 -0.0960 0.9525
vn -0.0286 -0.9950 0.0959
vn -0.0285 0.9953 0.0924
vn -0.2889 0.0994 0.9522
vn -0.0845 -0.9562 0.2804
vn -0.2779 0.2909 0.9155
vn -0.1372 -0.8804 0.4539
vn -0.2562 0.4716 0.8438
vn -0.1846 -0.7708 0.6098
vn -0.2247 0.6343 0.7397
vn -0.2247 -0.6317 0.7419
vn -0.0285 -0.9561 0.2915
vn -0.0938 0.2910 0.9521
vn -0.0463 -0.8804 0.4720
vn -0.0865 0.4716 0.8775
vn -0.0623 -0.7708 0.6341
vn -0.0759 0.6344 0.7693
vn -0.0759 -0.6317 0.7715
vn -0.0623 0.7730 0.6313
vn -0.0865 -0.4685 0.8792
vn -0.0463 0.8820 0.4689
vn -0.0938 -0.2876 0.9531
vn -0.0285 0.9572 0.2881
vn -0.0976 -0.0959 0.9906
vn -0.0096 -0.9950 0.0997
vn -0.0097 0.9953 0.0961
vn -0.0976 0.0994 0.9903
vn 0.0936 -0.2951 0.9509
vn 0.2772 -0.2952 0.9143
vn 0.4502 -0.2953 0.8427
vn 0.6058 -0.2955 0.7387
vn 0.7382 -0.2957 0.6063
vn 0.8422 -0.2960 0.4507
vn 0.9138 -0.2963 0.2777
vn 0.9503 -0.2966 0.0941
vn 0.9503 -0.2970 -0.0931
vn 0.9138 -0.2973 -0.2767
vn 0.8422 -0.2976 -0.4496
vn 0.7382 -0.2979 -0.6053
vn 0.6058 -0.2981 -0.7376
vn 0.4502 -0.2983 -0.8417
vn 0.2772 -0.2984 -0.9133
vn 0.0936 -0.2985 -0.9498
vn -0.0936 -0.2985 -0.9498
vn -0.2772 -0.2984 -0.9133
vn -0.4502 -0.2983 -0.8417
vn -0.6058 -0.2981 -0.7376
vn -0.7382 -0.2979 -0.6053
vn -0.8422 -0.2976 -0.4496
vn -0.9138 -0.2973 -0.2767
vn -0.9503 -0.2970 -0.0931
vn -0.9503 -0.2966 0.0941
vn -0.9138 -0.2963 0.2777
vn -0.8422 -0.2960 0.4507
vn -0.7382 -0.2957 0.6063
vn -0.6058 -0.2955 0.7387
vn -0.4502 -0.2953 0.8427
vn -0.0000 1.0000 -0.0018
vn -0.2772 -0.2952 0.9143
vn -0.0936 -0.2951 0.9509
vn 0.0286 -0.9561 0.2915
vn 0.0759 -0.6316 0.7715
vn 0.0285 0.9572 0.2881
vn 0.0846 -0.9562 0.2804
vn 0.1845 0.7730 0.6070
vn 0.3649 -0.6318 0.6838
vn 0.7399 -0.2882 0.6078
vn 0.2787 0.9568 0.0828
vn 0.4705 -0.8811 0.0479
vn 0.2898 0.9567 0.0268
vn 0.2898 -0.9566 0.0303
vn 0.4704 0.8811 -0.0479
vn 0.2898 0.9566 -0.0302
vn 0.2568 -0.9569 -0.1356
vn 0.8442 0.2885 -0.4517
vn 0.7400 0.2882 -0.6078
vn 0.0846 -0.9571 -0.2770
vn 0.0759 0.6316 -0.7715
vn -0.0759 0.6316 -0.7715
vn -0.1846 0.7708 -0.6098
vn -0.0845 0.9562 -0.2804
vn -0.0846 -0.9571 -0.2770
vn -0.3649 0.6318 -0.6838
vn -0.7400 0.2882 -0.6078
vn -0.7400 -0.2904 -0.6067
vn -0.2898 0.9566 -0.0302
vn -0.4705 -0.8813 -0.0448
vn -0.4705 0.8813 0.0448
vn -0.2898 -0.9566 0.0303
vn -0.2787 0.9568 0.0828
vn -0.6827 -0.6324 0.3660
vn -0.8442 -0.2885 0.4518
vn -0.2568 -0.9564 0.1390
vn -0.7400 -0.2882 0.6078
vn -0.0846 0.9571 0.2770
vn -0.0759 -0.6316 0.7715
vt 0.750000 0.437500
vt 0.718750 0.500000
vt 0.718750 0.437500
vt 0.750000 0.875000
vt 0.718750 0.937500
vt 0.718750 0.875000
vt 0.718750 0.375000
vt 0.750000 0.375000
vt 0.750000 0.812500
vt 0.718750 0.812500
vt 0.718750 0.312500
vt 0.750000 0.312500
vt 0.750000 0.750000
vt 0.718750 0.750000
vt 0.750000 0.250000
vt 0.718750 0.250000
vt 0.718750 0.687500
vt 0.750000 0.687500
vt 0.718750 0.187500
vt 0.750000 0.187500
vt 0.750000 0.625000
vt 0.718750 0.625000
vt 0.718750 0.125000
vt 0.750000 0.125000
vt 0.750000 0.562500
vt 0.718750 0.562500
vt 0.718750 0.062500
vt 0.750000 0.062500
vt 0.750000 0.500000
vt 0.750000 0.937500
vt 0.734375 1.000000
vt 0.734375 0.000000
vt 0.687500 0.500000
vt 0.703125 1.000000
vt 0.687500 0.937500
vt 0.703125 0.000000
vt 0.687500 0.062500
vt 0.687500 0.437500
vt 0.687500 0.875000
vt 0.687500 0.375000
vt 0.687500 0.812500
vt 0.687500 0.312500
vt 0.687500 0.750000
vt 0.687500 0.250000
vt 0.687500 0.687500
vt 0.687500 0.187500
vt 0.687500 0.625000
vt 0.687500 0.125000
vt 0.687500 0.562500
vt 0.656250 0.250000
vt 0.656250 0.687500
vt 0.656250 0.187500
vt 0.656250 0.625000
vt 0.656250 0.125000
vt 0.656250 0.562500
vt 0.656250 0.062500
vt 0.656250 0.500000
vt 0.671875 1.000000
vt 0.656250 0.937500
vt 0.671875 0.000000
vt 0.656250 0.437500
vt 0.656250 0.875000
vt 0.656250 0.375000
vt 0.656250 0.812500
vt 0.656250 0.312500
vt 0.656250 0.750000
vt 0.640625 1.000000
vt 0.625000 0.937500
vt 0.640625 0.000000
vt 0.625000 0.062500
vt 0.625000 0.437500
vt 0.625000 0.875000
vt 0.625000 0.375000
vt 0.625000 0.812500
vt 0.625000 0.312500
vt 0.625000 0.750000
vt 0.625000 0.250000
vt 0.625000 0.687500
vt 0.625000 0.187500
vt 0.625000 0.625000
vt 0.625000 0.125000
vt 0.625000 0.562500
vt 0.625000 0.500000
vt 0.593750 0.687500
vt 0.593750 0.250000
vt 0.593750 0.187500
vt 0.593750 0.625000
vt 0.593750 0.125000
vt 0.593750 0.562500
vt 0.593750 0.062500
vt 0.593750 0.500000
vt 0.609375 1.000000
vt 0.593750 0.937500
vt 0.609375 0.000000
vt 0.593750 0.437500
vt 0.593750 0.875000
vt 0.593750 0.375000
vt 0.593750 0.812500
vt 0.593750 0.312500
vt 0.593750 0.750000
vt 0.562500 0.437500
vt 0.562500 0.875000
vt 0.562500 0.375000
vt 0.562500 0.812500
vt 0.562500 0.312500
vt 0.562500 0.750000
vt 0.562500 0.250000
vt 0.562500 0.687500
vt 0.562500 0.187500
vt 0.562500 0.625000
vt 0.562500 0.125000
vt 0.562500 0.562500
vt 0.562500 0.062500
vt 0.562500 0.500000
vt 0.578125 1.000000
vt 0.562500 0.937500
vt 0.578125 0.000000
vt 0.531250 0.187500
vt 0.531250 0.625000
vt 0.531250 0.125000
vt 0.531250 0.562500
vt 0.531250 0.062500
vt 0.531250 0.500000
vt 0.546875 1.000000
vt 0.531250 0.937500
vt 0.546875 0.000000
vt 0.531250 0.437500
vt 0.531250 0.875000
vt 0.531250 0.375000
vt 0.531250 0.812500
vt 0.531250 0.312500
vt 0.531250 0.750000
vt 0.531250 0.250000
vt 0.531250 0.687500
vt 0.500000 0.375000
vt 0.500000 0.875000
vt 0.500000 0.812500
vt 0.500000 0.312500
vt 0.500000 0.750000
vt 0.500000 0.250000
vt 0.500000 0.687500
vt 0.500000 0.187500
vt 0.500000 0.625000
vt 0.500000 0.125000
vt 0.500000 0.562500
vt 0.500000 0.062500
vt 0.500000 0.500000
vt 0.515625 1.000000
vt 0.500000 0.937500
vt 0.515625 0.000000
vt 0.500000 0.437500
vt 0.468750 0.187500
vt 0.468750 0.125000
vt 0.468750 0.562500
vt 0.468750 0.062500
vt 0.468750 0.500000
vt 0.484375 1.000000
vt 0.468750 0.937500
vt 0.484375 0.000000
vt 0.468750 0.437500
vt 0.468750 0.875000
vt 0.468750 0.375000
vt 0.468750 0.812500
vt 0.468750 0.312500
vt 0.468750 0.750000
vt 0.468750 0.250000
vt 0.468750 0.687500
vt 0.468750 0.625000
vt 0.437500 0.875000
vt 0.437500 0.812500
vt 0.437500 0.375000
vt 0.437500 0.312500
vt 0.437500 0.750000
vt 0.437500 0.250000
vt 0.437500 0.687500
vt 0.437500 0.187500
vt 0.437500 0.625000
vt 0.437500 0.125000
vt 0.437500 0.562500
vt 0.437500 0.062500
vt 0.437500 0.500000
vt 0.453125 1.000000
vt 0.437500 0.937500
vt 0.453125 0.000000
vt 0.437500 0.437500
vt 0.406250 0.625000
vt 0.406250 0.562500
vt 0.406250 0.062500
vt 0.406250 0.500000
vt 0.421875 1.000000
vt 0.406250 0.937500
vt 0.421875 0.000000
vt 0.406250 0.437500
vt 0.406250 0.875000
vt 0.406250 0.375000
vt 0.406250 0.812500
vt 0.406250 0.312500
vt 0.406250 0.750000
vt 0.406250 0.250000
vt 0.406250 0.687500
vt 0.406250 0.187500
vt 0.406250 0.125000
vt 0.375000 0.312500
vt 0.375000 0.750000
vt 0.375000 0.250000
vt 0.375000 0.687500
vt 0.375000 0.187500
vt 0.375000 0.625000
vt 0.375000 0.125000
vt 0.375000 0.562500
vt 0.375000 0.062500
vt 0.375000 0.500000
vt 0.390625 1.000000
vt 0.375000 0.937500
vt 0.390625 0.000000
vt 0.375000 0.437500
vt 0.375000 0.875000
vt 0.375000 0.375000
vt 0.375000 0.812500
vt 0.343750 0.125000
vt 0.343750 0.062500
vt 0.343750 0.500000
vt 0.359375 1.000000
vt 0.343750 0.937500
vt 0.359375 0.000000
vt 0.343750 0.437500
vt 0.343750 0.875000
vt 0.343750 0.375000
vt 0.343750 0.812500
vt 0.343750 0.312500
vt 0.343750 0.750000
vt 0.343750 0.250000
vt 0.343750 0.687500
vt 0.343750 0.187500
vt 0.343750 0.625000
vt 0.343750 0.562500
vt 0.312500 0.750000
vt 0.312500 0.250000
vt 0.312500 0.687500
vt 0.312500 0.187500
vt 0.312500 0.625000
vt 0.312500 0.125000
vt 0.312500 0.562500
vt 0.312500 0.062500
vt 0.312500 0.500000
vt 0.328125 1.000000
vt 0.312500 0.937500
vt 0.328125 0.000000
vt 0.312500 0.437500
vt 0.312500 0.875000
vt 0.312500 0.375000
vt 0.312500 0.812500
vt 0.312500 0.312500
vt 0.281250 0.562500
vt 0.281250 0.500000
vt 0.296875 1.000000
vt 0.281250 0.937500
vt 0.296875 0.000000
vt 0.281250 0.062500
vt 0.281250 0.437500
vt 0.281250 0.875000
vt 0.281250 0.375000
vt 0.281250 0.812500
vt 0.281250 0.312500
vt 0.281250 0.750000
vt 0.281250 0.250000
vt 0.281250 0.687500
vt 0.281250 0.187500
vt 0.281250 0.625000
vt 0.281250 0.125000
vt 0.250000 0.250000
vt 0.250000 0.687500
vt 0.250000 0.187500
vt 0.250000 0.625000
vt 0.250000 0.125000
vt 0.250000 0.562500
vt 0.250000 0.062500
vt 0.250000 0.500000
vt 0.265625 1.000000
vt 0.250000 0.937500
vt 0.265625 0.000000
vt 0.250000 0.437500
vt 0.250000 0.875000
vt 0.250000 0.375000
vt 0.250000 0.812500
vt 0.250000 0.312500
vt 0.250000 0.750000
vt 0.234375 0.000000
vt 0.218750 0.062500
vt 0.218750 0.437500
vt 0.218750 0.875000
vt 0.218750 0.375000
vt 0.218750 0.812500
vt 0.218750 0.312500
vt 0.218750 0.750000
vt 0.218750 0.250000
vt 0.218750 0.687500
vt 0.218750 0.187500
vt 0.218750 0.625000
vt 0.218750 0.125000
vt 0.218750 0.562500
vt 0.218750 0.500000
vt 0.234375 1.000000
vt 0.218750 0.937500
vt 0.187500 0.187500
vt 0.187500 0.687500
vt 0.187500 0.625000
vt 0.187500 0.125000
vt 0.187500 0.562500
vt 0.187500 0.062500
vt 0.187500 0.500000
vt 0.203125 1.000000
vt 0.187500 0.937500
vt 0.203125 0.000000
vt 0.187500 0.437500
vt 0.187500 0.875000
vt 0.187500 0.375000
vt 0.187500 0.812500
vt 0.187500 0.312500
vt 0.187500 0.750000
vt 0.187500 0.250000
vt 0.156250 0.875000
vt 0.156250 0.375000
vt 0.156250 0.812500
vt 0.156250 0.312500
vt 0.156250 0.750000
vt 0.156250 0.250000
vt 0.156250 0.687500
vt 0.156250 0.187500
vt 0.156250 0.625000
vt 0.156250 0.125000
vt 0.156250 0.562500
vt 0.156250 0.062500
vt 0.156250 0.500000
vt 0.171875 1.000000
vt 0.156250 0.937500
vt 0.171875 0.000000
vt 0.156250 0.437500
vt 0.125000 0.625000
vt 0.125000 0.125000
vt 0.125000 0.562500
vt 0.125000 0.062500
vt 0.125000 0.500000
vt 0.140625 1.000000
vt 0.125000 0.937500
vt 0.140625 0.000000
vt 0.125000 0.437500
vt 0.125000 0.875000
vt 0.125000 0.375000
vt 0.125000 0.812500
vt 0.125000 0.312500
vt 0.125000 0.750000
vt 0.125000 0.250000
vt 0.125000 0.687500
vt 0.125000 0.187500
vt 0.093750 0.375000
vt 0.093750 0.875000
vt 0.093750 0.812500
vt 0.093750 0.312500
vt 0.093750 0.750000
vt 0.093750 0.250000
vt 0.093750 0.687500
vt 0.093750 0.187500
vt 0.093750 0.625000
vt 0.093750 0.125000
vt 0.093750 0.562500
vt 0.093750 0.062500
vt 0.093750 0.500000
vt 0.109375 1.000000
vt 0.093750 0.937500
vt 0.109375 0.000000
vt 0.093750 0.437500
vt 0.062500 0.125000
vt 0.062500 0.625000
vt 0.062500 0.562500
vt 0.062500 0.062500
vt 0.062500 0.500000
vt 0.078125 1.000000
vt 0.062500 0.937500
vt 0.078125 0.000000
vt 0.062500 0.437500
vt 0.062500 0.875000
vt 0.062500 0.375000
vt 0.062500 0.812500
vt 0.062500 0.312500
vt 0.062500 0.750000
vt 0.062500 0.250000
vt 0.062500 0.687500
vt 0.062500 0.187500
vt 0.031250 0.875000
vt 0.031250 0.812500
vt 0.031250 0.375000
vt 0.031250 0.312500
vt 0.031250 0.750000
vt 0.031250 0.250000
vt 0.031250 0.687500
vt 0.031250 0.187500
vt 0.031250 0.625000
vt 0.031250 0.125000
vt 0.031250 0.562500
vt 0.031250 0.062500
vt 0.031250 0.500000
vt 0.046875 1.000000
vt 0.031250 0.937500
vt 0.046875 0.000000
vt 0.031250 0.437500
vt 0.000000 0.625000
vt 0.000000 0.562500
vt 0.000000 0.062500
vt 0.000000 0.500000
vt 0.015625 1.000000
vt 0.000000 0.937500
vt 0.015625 0.000000
vt 0.000000 0.437500
vt 0.000000 0.875000
vt 0.000000 0.375000
vt 0.000000 0.812500
vt 0.000000 0.312500
vt 0.000000 0.750000
vt 0.000000 0.250000
vt 0.000000 0.687500
vt 0.000000 0.187500
vt 0.000000 0.125000
vt 1.000000 0.312500
vt 0.968750 0.375000
vt 0.968750 0.312500
vt 1.000000 0.812500
vt 0.968750 0.750000
vt 1.000000 0.750000
vt 0.968750 0.250000
vt 1.000000 0.250000
vt 0.968750 0.687500
vt 1.000000 0.687500
vt 1.000000 0.187500
vt 0.968750 0.187500
vt 0.968750 0.625000
vt 1.000000 0.625000
vt 0.968750 0.125000
vt 1.000000 0.125000
vt 1.000000 0.562500
vt 0.968750 0.562500
vt 1.000000 0.062500
vt 0.968750 0.062500
vt 1.000000 0.500000
vt 0.968750 0.500000
vt 1.000000 0.937500
vt 0.984375 1.000000
vt 0.968750 0.937500
vt 0.984375 0.000000
vt 0.968750 0.437500
vt 1.000000 0.437500
vt 1.000000 0.875000
vt 0.968750 0.875000
vt 1.000000 0.375000
vt 0.968750 0.812500
vt 0.937500 0.062500
vt 0.937500 0.562500
vt 0.937500 0.500000
vt 0.953125 1.000000
vt 0.937500 0.937500
vt 0.953125 0.000000
vt 0.937500 0.437500
vt 0.937500 0.875000
vt 0.937500 0.375000
vt 0.937500 0.812500
vt 0.937500 0.312500
vt 0.937500 0.750000
vt 0.937500 0.250000
vt 0.937500 0.687500
vt 0.937500 0.187500
vt 0.937500 0.625000
vt 0.937500 0.125000
vt 0.906250 0.250000
vt 0.906250 0.750000
vt 0.906250 0.687500
vt 0.906250 0.187500
vt 0.906250 0.625000
vt 0.906250 0.125000
vt 0.906250 0.562500
vt 0.906250 0.062500
vt 0.906250 0.500000
vt 0.921875 1.000000
vt 0.906250 0.937500
vt 0.921875 0.000000
vt 0.906250 0.437500
vt 0.906250 0.875000
vt 0.906250 0.375000
vt 0.906250 0.812500
vt 0.906250 0.312500
vt 0.890625 1.000000
vt 0.875000 0.937500
vt 0.890625 0.000000
vt 0.875000 0.062500
vt 0.875000 0.437500
vt 0.875000 0.875000
vt 0.875000 0.375000
vt 0.875000 0.812500
vt 0.875000 0.312500
vt 0.875000 0.750000
vt 0.875000 0.250000
vt 0.875000 0.687500
vt 0.875000 0.187500
vt 0.875000 0.625000
vt 0.875000 0.125000
vt 0.875000 0.562500
vt 0.875000 0.500000
vt 0.843750 0.750000
vt 0.843750 0.687500
vt 0.843750 0.250000
vt 0.843750 0.187500
vt 0.843750 0.625000
vt 0.843750 0.125000
vt 0.843750 0.562500
vt 0.843750 0.062500
vt 0.843750 0.500000
vt 0.859375 1.000000
vt 0.843750 0.937500
vt 0.859375 0.000000
vt 0.843750 0.437500
vt 0.843750 0.875000
vt 0.843750 0.375000
vt 0.843750 0.812500
vt 0.843750 0.312500
vt 0.812500 0.437500
vt 0.812500 0.875000
vt 0.812500 0.375000
vt 0.812500 0.812500
vt 0.812500 0.312500
vt 0.812500 0.750000
vt 0.812500 0.250000
vt 0.812500 0.687500
vt 0.812500 0.187500
vt 0.812500 0.625000
vt 0.812500 0.125000
vt 0.812500 0.562500
vt 0.812500 0.062500
vt 0.812500 0.500000
vt 0.828125 1.000000
vt 0.812500 0.937500
vt 0.828125 0.000000
vt 0.781250 0.187500
vt 0.781250 0.625000
vt 0.781250 0.125000
vt 0.781250 0.562500
vt 0.781250 0.062500
vt 0.781250 0.500000
vt 0.796875 1.000000
vt 0.781250 0.937500
vt 0.796875 0.000000
vt 0.781250 0.437500
vt 0.781250 0.875000
vt 0.781250 0.375000
vt 0.781250 0.812500
vt 0.781250 0.312500
vt 0.781250 0.750000
vt 0.781250 0.250000
vt 0.781250 0.687500
vt 0.765625 1.000000
vt 0.765625 0.000000
vt 0.250000 0.490000
vt 0.296822 0.485388
vt 0.341844 0.471731
vt 0.383337 0.449553
vt 0.419706 0.419706
vt 0.449553 0.383337
vt 0.471731 0.341844
vt 0.485388 0.296822
vt 0.490000 0.250000
vt 0.485388 0.203178
vt 0.471731 0.158156
vt 0.449553 0.116663
vt 0.419706 0.080294
vt 0.383337 0.050447
vt 0.341844 0.028269
vt 0.296822 0.014612
vt 0.250000 0.010000
vt 0.203178 0.014612
vt 0.158156 0.028269
vt 0.116663 0.050447
vt 0.080294 0.080294
vt 0.050447 0.116663
vt 0.028269 0.158156
vt 0.014612 0.203178
vt 0.010000 0.250000
vt 0.014612 0.296822
vt 0.028269 0.341844
vt 0.050447 0.383337
vt 0.080294 0.419706
vt 0.116663 0.449553
vt 0.158156 0.471731
vt 0.796822 0.014612
vt 0.514612 0.203178
vt 0.703178 0.485388
vt 0.203178 0.485388
vt 0.750000 0.490000
vt 0.796822 0.485388
vt 0.841844 0.471731
vt 0.883337 0.449553
vt 0.919706 0.419706
vt 0.985388 0.296822
vt 0.949553 0.383337
vt 0.971731 0.341844
vt 0.990000 0.250000
vt 0.985388 0.203178
vt 0.971731 0.158156
vt 0.949553 0.116663
vt 0.919706 0.080294
vt 0.883337 0.050447
vt 0.841844 0.028269
vt 0.750000 0.010000
vt 0.703178 0.014612
vt 0.658156 0.028269
vt 0.616663 0.050447
vt 0.580294 0.080294
vt 0.550447 0.116663
vt 0.528269 0.158156
vt 0.510000 0.250000
vt 0.514612 0.296822
vt 0.528269 0.341844
vt 0.550447 0.383337
vt 0.580294 0.419706
vt 0.616663 0.449553
vt 0.658156 0.471731
s 0
usemtl マテリアル
f 5/1/1 14/2/1 15/3/1
f 475/4/2 7/5/2 8/6/2
f 5/1/3 16/7/3 478/8/3
f 1/9/4 8/6/4 9/10/4
f 478/8/5 17/11/5 6/12/5
f 476/13/6 9/10/6 10/14/6
f 479/15/7 17/11/7 18/16/7
f 476/13/8 11/17/8 2/18/8
f 479/15/9 19/19/9 480/20/9
f 477/21/10 11/17/10 12/22/10
f 480/20/11 20/23/11 481/24/11
f 3/25/12 12/22/12 13/26/12
f 481/24/13 21/27/13 482/28/13
f 4/29/14 13/26/14 14/2/14
f 474/30/15 82/31/15 7/5/15
f 308/32/16 482/28/16 21/27/16
f 13/26/17 29/33/17 14/2/17
f 7/5/18 82/34/18 22/35/18
f 308/36/19 21/27/19 36/37/19
f 14/2/20 30/38/20 15/3/20
f 8/6/21 22/35/21 23/39/21
f 15/3/22 31/40/22 16/7/22
f 8/6/23 24/41/23 9/10/23
f 17/11/24 31/40/24 32/42/24
f 9/10/25 25/43/25 10/14/25
f 17/11/26 33/44/26 18/16/26
f 10/14/27 26/45/27 11/17/27
f 19/19/28 33/44/28 34/46/28
f 11/17/29 27/47/29 12/22/29
f 19/19/30 35/48/30 20/23/30
f 13/26/31 27/47/31 28/49/31
f 21/27/32 35/48/32 36/37/32
f 32/42/33 48/50/33 33/44/33
f 25/43/34 41/51/34 26/45/34
f 34/46/35 48/50/35 49/52/35
f 27/47/36 41/51/36 42/53/36
f 35/48/37 49/52/37 50/54/37
f 27/47/38 43/55/38 28/49/38
f 36/37/39 50/54/39 51/56/39
f 28/49/40 44/57/40 29/33/40
f 22/35/41 82/58/41 37/59/41
f 308/60/42 36/37/42 51/56/42
f 29/33/43 45/61/43 30/38/43
f 22/35/44 38/62/44 23/39/44
f 30/38/45 46/63/45 31/40/45
f 23/39/46 39/64/46 24/41/46
f 31/40/47 47/65/47 32/42/47
f 24/41/48 40/66/48 25/43/48
f 37/59/49 82/67/49 52/68/49
f 308/69/50 51/56/50 66/70/50
f 44/57/51 60/71/51 45/61/51
f 37/59/52 53/72/52 38/62/52
f 46/63/53 60/71/53 61/73/53
f 38/62/54 54/74/54 39/64/54
f 47/65/55 61/73/55 62/75/55
f 39/64/56 55/76/56 40/66/56
f 48/50/57 62/75/57 63/77/57
f 40/66/58 56/78/58 41/51/58
f 49/52/59 63/77/59 64/79/59
f 41/51/60 57/80/60 42/53/60
f 49/52/61 65/81/61 50/54/61
f 43/55/62 57/80/62 58/82/62
f 50/54/63 66/70/63 51/56/63
f 44/57/64 58/82/64 59/83/64
f 55/76/65 71/84/65 56/78/65
f 64/79/66 78/85/66 79/86/66
f 56/78/67 72/87/67 57/80/67
f 64/79/68 80/88/68 65/81/68
f 57/80/69 73/89/69 58/82/69
f 65/81/70 81/90/70 66/70/70
f 58/82/71 74/91/71 59/83/71
f 52/68/72 82/92/72 67/93/72
f 308/94/73 66/70/73 81/90/73
f 60/71/74 74/91/74 75/95/74
f 53/72/75 67/93/75 68/96/75
f 60/71/76 76/97/76 61/73/76
f 54/74/77 68/96/77 69/98/77
f 62/75/78 76/97/78 77/99/78
f 54/74/79 70/100/79 55/76/79
f 63/77/80 77/99/80 78/85/80
f 74/91/81 91/101/81 75/95/81
f 67/93/82 84/102/82 68/96/82
f 76/97/83 91/101/83 92/103/83
f 69/98/84 84/102/84 85/104/84
f 77/99/85 92/103/85 93/105/85
f 69/98/86 86/106/86 70/100/86
f 77/99/87 94/107/87 78/85/87
f 71/84/88 86/106/88 87/108/88
f 79/86/89 94/107/89 95/109/89
f 71/84/90 88/110/90 72/87/90
f 79/86/91 96/111/91 80/88/91
f 73/89/92 88/110/92 89/112/92
f 80/88/93 97/113/93 81/90/93
f 74/91/94 89/112/94 90/114/94
f 67/93/95 82/115/95 83/116/95
f 308/117/96 81/90/96 97/113/96
f 94/107/97 110/118/97 95/109/97
f 87/108/98 103/119/98 88/110/98
f 96/111/99 110/118/99 111/120/99
f 89/112/100 103/119/100 104/121/100
f 97/113/101 111/120/101 112/122/101
f 90/114/102 104/121/102 105/123/102
f 83/116/103 82/124/103 98/125/103
f 308/126/104 97/113/104 112/122/104
f 90/114/105 106/127/105 91/101/105
f 83/116/106 99/128/106 84/102/106
f 91/101/107 107/129/107 92/103/107
f 84/102/108 100/130/108 85/104/108
f 93/105/109 107/129/109 108/131/109
f 85/104/110 101/132/110 86/106/110
f 94/107/111 108/131/111 109/133/111
f 87/108/112 101/132/112 102/134/112
f 106/127/113 122/135/113 107/129/113
f 100/130/114 114/136/114 115/137/114
f 107/129/115 123/138/115 108/131/115
f 100/130/116 116/139/116 101/132/116
f 109/133/117 123/138/117 124/140/117
f 102/134/118 116/139/118 117/141/118
f 110/118/119 124/140/119 125/142/119
f 102/134/120 118/143/120 103/119/120
f 110/118/121 126/144/121 111/120/121
f 103/119/122 119/145/122 104/121/122
f 111/120/123 127/146/123 112/122/123
f 105/123/124 119/145/124 120/147/124
f 98/125/125 82/148/125 113/149/125
f 308/150/126 112/122/126 127/146/126
f 106/127/127 120/147/127 121/151/127
f 98/125/128 114/136/128 99/128/128
f 126/144/129 140/152/129 141/153/129
f 118/143/130 134/154/130 119/145/130
f 127/146/131 141/153/131 142/155/131
f 119/145/132 135/156/132 120/147/132
f 113/149/133 82/157/133 128/158/133
f 308/159/134 127/146/134 142/155/134
f 120/147/135 136/160/135 121/151/135
f 113/149/136 129/161/136 114/136/136
f 121/151/137 137/162/137 122/135/137
f 114/136/138 130/163/138 115/137/138
f 123/138/139 137/162/139 138/164/139
f 115/137/140 131/165/140 116/139/140
f 123/138/141 139/166/141 124/140/141
f 117/141/142 131/165/142 132/167/142
f 124/140/143 140/152/143 125/142/143
f 117/141/144 133/168/144 118/143/144
f 130/163/145 144/169/145 145/170/145
f 138/164/146 152/171/146 153/172/146
f 130/163/147 146/173/147 131/165/147
f 138/164/148 154/174/148 139/166/148
f 132/167/149 146/173/149 147/175/149
f 140/152/150 154/174/150 155/176/150
f 132/167/151 148/177/151 133/168/151
f 140/152/152 156/178/152 141/153/152
f 134/154/153 148/177/153 149/179/153
f 142/155/154 156/178/154 157/180/154
f 134/154/155 150/181/155 135/156/155
f 128/158/156 82/182/156 143/183/156
f 308/184/157 142/155/157 157/180/157
f 135/156/158 151/185/158 136/160/158
f 129/161/159 143/183/159 144/169/159
f 136/160/160 152/171/160 137/162/160
f 149/179/161 163/186/161 164/187/161
f 156/178/162 172/188/162 157/180/162
f 150/181/163 164/187/163 165/189/163
f 143/183/164 82/190/164 158/191/164
f 308/192/165 157/180/165 172/188/165
f 150/181/166 166/193/166 151/185/166
f 143/183/167 159/194/167 144/169/167
f 151/185/168 167/195/168 152/171/168
f 145/170/169 159/194/169 160/196/169
f 153/172/170 167/195/170 168/197/170
f 145/170/171 161/198/171 146/173/171
f 154/174/172 168/197/172 169/199/172
f 147/175/173 161/198/173 162/200/173
f 155/176/174 169/199/174 170/201/174
f 147/175/175 163/186/175 148/177/175
f 156/178/176 170/201/176 171/202/176
f 167/195/177 183/203/177 168/197/177
f 160/196/178 176/204/178 161/198/178
f 168/197/179 184/205/179 169/199/179
f 161/198/180 177/206/180 162/200/180
f 170/201/181 184/205/181 185/207/181
f 162/200/182 178/208/182 163/186/182
f 171/202/183 185/207/183 186/209/183
f 164/187/184 178/208/184 179/210/184
f 172/188/185 186/209/185 187/211/185
f 165/189/186 179/210/186 180/212/186
f 158/191/187 82/213/187 173/214/187
f 308/215/188 172/188/188 187/211/188
f 166/193/189 180/212/189 181/216/189
f 158/191/190 174/217/190 159/194/190
f 166/193/191 182/218/191 167/195/191
f 159/194/192 175/219/192 160/196/192
f 187/211/193 201/220/193 202/221/193
f 179/210/194 195/222/194 180/212/194
f 173/214/195 82/223/195 188/224/195
f 308/225/196 187/211/196 202/221/196
f 180/212/197 196/226/197 181/216/197
f 173/214/198 189/227/198 174/217/198
f 181/216/199 197/228/199 182/218/199
f 175/219/200 189/227/200 190/229/200
f 183/203/201 197/228/201 198/230/201
f 175/219/202 191/231/202 176/204/202
f 184/205/203 198/230/203 199/232/203
f 177/206/204 191/231/204 192/233/204
f 184/205/205 200/234/205 185/207/205
f 178/208/206 192/233/206 193/235/206
f 185/207/207 201/220/207 186/209/207
f 179/210/208 193/235/208 194/236/208
f 190/229/209 206/237/209 191/231/209
f 198/230/210 214/238/210 199/232/210
f 191/231/211 207/239/211 192/233/211
f 200/234/212 214/238/212 215/240/212
f 192/233/213 208/241/213 193/235/213
f 201/220/214 215/240/214 216/242/214
f 194/236/215 208/241/215 209/243/215
f 201/220/216 217/244/216 202/221/216
f 195/222/217 209/243/217 210/245/217
f 188/224/218 82/246/218 203/247/218
f 308/248/219 202/221/219 217/244/219
f 195/222/220 211/249/220 196/226/220
f 188/224/221 204/250/221 189/227/221
f 196/226/222 212/251/222 197/228/222
f 189/227/223 205/252/223 190/229/223
f 198/230/224 212/251/224 213/253/224
f 210/245/225 224/254/225 225/255/225
f 203/247/226 82/256/226 218/257/226
f 308/258/227 217/244/227 232/259/227
f 211/249/228 225/255/228 226/260/228
f 203/247/229 219/261/229 204/250/229
f 212/251/230 226/260/230 227/262/230
f 204/250/231 220/263/231 205/252/231
f 213/253/232 227/262/232 228/264/232
f 205/252/233 221/265/233 206/237/233
f 214/238/234 228/264/234 229/266/234
f 207/239/235 221/265/235 222/267/235
f 215/240/236 229/266/236 230/268/236
f 207/239/237 223/269/237 208/241/237
f 216/242/238 230/268/238 231/270/238
f 209/243/239 223/269/239 224/254/239
f 217/244/240 231/270/240 232/259/240
f 228/264/241 244/271/241 229/266/241
f 221/265/242 237/272/242 222/267/242
f 229/266/243 245/273/243 230/268/243
f 222/267/244 238/274/244 223/269/244
f 230/268/245 246/275/245 231/270/245
f 223/269/246 239/276/246 224/254/246
f 231/270/247 247/277/247 232/259/247
f 225/255/248 239/276/248 240/278/248
f 218/257/249 82/279/249 233/280/249
f 308/281/250 232/259/250 247/277/250
f 225/255/251 241/282/251 226/260/251
f 218/257/252 234/283/252 219/261/252
f 226/260/253 242/284/253 227/262/253
f 220/263/254 234/283/254 235/285/254
f 228/264/255 242/284/255 243/286/255
f 221/265/256 235/285/256 236/287/256
f 308/288/257 247/277/257 262/289/257
f 240/278/258 256/290/258 241/282/258
f 233/280/259 249/291/259 234/283/259
f 241/282/260 257/292/260 242/284/260
f 234/283/261 250/293/261 235/285/261
f 243/286/262 257/292/262 258/294/262
f 235/285/263 251/295/263 236/287/263
f 244/271/264 258/294/264 259/296/264
f 237/272/265 251/295/265 252/297/265
f 245/273/266 259/296/266 260/298/266
f 237/272/267 253/299/267 238/274/267
f 246/275/268 260/298/268 261/300/268
f 238/274/269 254/301/269 239/276/269
f 246/275/270 262/289/270 247/277/270
f 240/278/271 254/301/271 255/302/271
f 233/280/272 82/303/272 248/304/272
f 259/296/273 275/305/273 260/298/273
f 253/299/274 267/306/274 268/307/274
f 260/298/275 276/308/275 261/300/275
f 254/301/276 268/307/276 269/309/276
f 261/300/277 277/310/277 262/289/277
f 255/302/278 269/309/278 270/311/278
f 248/304/279 82/312/279 263/313/279
f 308/314/280 262/289/280 277/310/280
f 255/302/281 271/315/281 256/290/281
f 249/291/282 263/313/282 264/316/282
f 256/290/283 272/317/283 257/292/283
f 250/293/284 264/316/284 265/318/284
f 258/294/285 272/317/285 273/319/285
f 250/293/286 266/320/286 251/295/286
f 258/294/287 274/321/287 259/296/287
f 251/295/288 267/306/288 252/297/288
f 263/313/289 279/322/289 264/316/289
f 271/315/290 287/323/290 272/317/290
f 264/316/291 280/324/291 265/318/291
f 273/319/292 287/323/292 288/325/292
f 265/318/293 281/326/293 266/320/293
f 274/321/294 288/325/294 289/327/294
f 267/306/295 281/326/295 282/328/295
f 275/305/296 289/327/296 290/329/296
f 267/306/297 283/330/297 268/307/297
f 276/308/298 290/329/298 291/331/298
f 269/309/299 283/330/299 284/332/299
f 277/310/300 291/331/300 292/333/300
f 270/311/301 284/332/301 285/334/301
f 263/313/302 82/335/302 278/336/302
f 308/337/303 277/310/303 292/333/303
f 270/311/304 286/338/304 271/315/304
f 282/328/305 298/339/305 283/330/305
f 290/329/306 306/340/306 291/331/306
f 284/332/307 298/339/307 299/341/307
f 292/333/308 306/340/308 307/342/308
f 285/334/309 299/341/309 300/343/309
f 278/336/310 82/344/310 293/345/310
f 308/346/311 292/333/311 307/342/311
f 286/338/312 300/343/312 301/347/312
f 278/336/313 294/348/313 279/322/313
f 286/338/314 302/349/314 287/323/314
f 279/322/315 295/350/315 280/324/315
f 287/323/316 303/351/316 288/325/316
f 280/324/317 296/352/317 281/326/317
f 288/325/318 304/353/318 289/327/318
f 281/326/319 297/354/319 282/328/319
f 289/327/320 305/355/320 290/329/320
f 301/347/321 318/356/321 302/349/321
f 295/350/322 310/357/322 311/358/322
f 303/351/323 318/356/323 319/359/323
f 296/352/324 311/358/324 312/360/324
f 303/351/325 320/361/325 304/353/325
f 297/354/326 312/360/326 313/362/326
f 305/355/327 320/361/327 321/363/327
f 297/354/328 314/364/328 298/339/328
f 305/355/329 322/365/329 306/340/329
f 299/341/330 314/364/330 315/366/330
f 306/340/331 323/367/331 307/342/331
f 300/343/332 315/366/332 316/368/332
f 293/345/333 82/369/333 309/370/333
f 308/371/334 307/342/334 323/367/334
f 300/343/335 317/372/335 301/347/335
f 294/348/336 309/370/336 310/357/336
f 321/363/337 337/373/337 322/365/337
f 315/366/338 329/374/338 330/375/338
f 323/367/339 337/373/339 338/376/339
f 316/368/340 330/375/340 331/377/340
f 309/370/341 82/378/341 324/379/341
f 308/380/342 323/367/342 338/376/342
f 316/368/343 332/381/343 317/372/343
f 309/370/344 325/382/344 310/357/344
f 317/372/345 333/383/345 318/356/345
f 311/358/346 325/382/346 326/384/346
f 319/359/347 333/383/347 334/385/347
f 311/358/348 327/386/348 312/360/348
f 319/359/349 335/387/349 320/361/349
f 312/360/350 328/388/350 313/362/350
f 320/361/351 336/389/351 321/363/351
f 313/362/352 329/374/352 314/364/352
f 326/384/353 340/390/353 341/391/353
f 334/385/354 348/392/354 349/393/354
f 327/386/355 341/391/355 342/394/355
f 334/385/356 350/395/356 335/387/356
f 328/388/357 342/394/357 343/396/357
f 335/387/358 351/397/358 336/389/358
f 328/388/359 344/398/359 329/374/359
f 337/373/360 351/397/360 352/399/360
f 330/375/361 344/398/361 345/400/361
f 338/376/362 352/399/362 353/401/362
f 331/377/363 345/400/363 346/402/363
f 324/379/364 82/403/364 339/404/364
f 308/405/365 338/376/365 353/401/365
f 331/377/366 347/406/366 332/381/366
f 324/379/367 340/390/367 325/382/367
f 332/381/368 348/392/368 333/383/368
f 345/400/369 359/407/369 360/408/369
f 352/399/370 368/409/370 353/401/370
f 346/402/371 360/408/371 361/410/371
f 339/404/372 82/411/372 354/412/372
f 308/413/373 353/401/373 368/409/373
f 346/402/374 362/414/374 347/406/374
f 340/390/375 354/412/375 355/415/375
f 347/406/376 363/416/376 348/392/376
f 341/391/377 355/415/377 356/417/377
f 349/393/378 363/416/378 364/418/378
f 341/391/379 357/419/379 342/394/379
f 349/393/380 365/420/380 350/395/380
f 342/394/381 358/421/381 343/396/381
f 351/397/382 365/420/382 366/422/382
f 343/396/383 359/407/383 344/398/383
f 351/397/384 367/423/384 352/399/384
f 364/424/385 378/425/385 379/426/385
f 356/427/386 372/428/386 357/429/386
f 364/424/387 380/430/387 365/431/387
f 357/429/388 373/432/388 358/433/388
f 366/434/389 380/430/389 381/435/389
f 358/433/390 374/436/390 359/437/390
f 366/434/391 382/438/391 367/439/391
f 360/440/392 374/436/392 375/441/392
f 368/442/393 382/438/393 383/443/393
f 361/444/394 375/441/394 376/445/394
f 354/446/395 82/447/395 369/448/395
f 308/449/396 368/442/396 383/443/396
f 361/444/397 377/450/397 362/451/397
f 355/452/398 369/448/398 370/453/398
f 362/451/399 378/425/399 363/454/399
f 356/427/400 370/453/400 371/455/400
f 382/438/401 398/456/401 383/443/401
f 376/445/402 390/457/402 391/458/402
f 369/448/403 82/459/403 384/460/403
f 308/461/404 383/443/404 398/456/404
f 376/445/405 392/462/405 377/450/405
f 369/448/406 385/463/406 370/453/406
f 377/450/407 393/464/407 378/425/407
f 370/453/408 386/465/408 371/455/408
f 378/425/409 394/466/409 379/426/409
f 371/455/410 387/467/410 372/428/410
f 379/426/411 395/468/411 380/430/411
f 373/432/412 387/467/412 388/469/412
f 381/435/413 395/468/413 396/470/413
f 373/432/414 389/471/414 374/436/414
f 381/435/415 397/472/415 382/438/415
f 375/441/416 389/471/416 390/457/416
f 394/466/417 410/473/417 395/468/417
f 388/469/418 402/474/418 403/475/418
f 396/470/419 410/473/419 411/476/419
f 388/469/420 404/477/420 389/471/420
f 397/472/421 411/476/421 412/478/421
f 390/457/422 404/477/422 405/479/422
f 398/456/423 412/478/423 413/480/423
f 391/458/424 405/479/424 406/481/424
f 384/460/425 82/482/425 399/483/425
f 308/484/426 398/456/426 413/480/426
f 391/458/427 407/485/427 392/462/427
f 384/460/428 400/486/428 385/463/428
f 392/462/429 408/487/429 393/464/429
f 385/463/430 401/488/430 386/465/430
f 394/466/431 408/487/431 409/489/431
f 386/465/432 402/474/432 387/467/432
f 399/483/433 82/490/433 414/491/433
f 308/492/434 413/480/434 428/493/434
f 406/481/435 422/494/435 407/485/435
f 399/483/436 415/495/436 400/486/436
f 407/485/437 423/496/437 408/487/437
f 401/488/438 415/495/438 416/497/438
f 409/489/439 423/496/439 424/498/439
f 401/488/440 417/499/440 402/474/440
f 409/489/441 425/500/441 410/473/441
f 403/475/442 417/499/442 418/501/442
f 410/473/443 426/502/443 411/476/443
f 403/475/444 419/503/444 404/477/444
f 412/478/445 426/502/445 427/504/445
f 405/479/446 419/503/446 420/505/446
f 413/480/447 427/504/447 428/493/447
f 406/481/448 420/505/448 421/506/448
f 418/501/449 432/507/449 433/508/449
f 426/502/450 440/509/450 441/510/450
f 418/501/451 434/511/451 419/503/451
f 426/502/452 442/512/452 427/504/452
f 420/505/453 434/511/453 435/513/453
f 428/493/454 442/512/454 443/514/454
f 420/505/455 436/515/455 421/506/455
f 414/491/456 82/516/456 429/517/456
f 308/518/457 428/493/457 443/514/457
f 421/506/458 437/519/458 422/494/458
f 414/491/459 430/520/459 415/495/459
f 422/494/460 438/521/460 423/496/460
f 416/497/461 430/520/461 431/522/461
f 424/498/462 438/521/462 439/523/462
f 416/497/463 432/507/463 417/499/463
f 424/498/464 440/509/464 425/500/464
f 436/515/465 452/524/465 437/519/465
f 429/517/466 445/525/466 430/520/466
f 438/521/467 452/524/467 453/526/467
f 430/520/468 446/527/468 431/522/468
f 439/523/469 453/526/469 454/528/469
f 431/522/470 447/529/470 432/507/470
f 440/509/471 454/528/471 455/530/471
f 433/508/472 447/529/472 448/531/472
f 441/510/473 455/530/473 456/532/473
f 433/508/474 449/533/474 434/511/474
f 442/512/475 456/532/475 457/534/475
f 435/513/476 449/533/476 450/535/476
f 443/514/477 457/534/477 458/536/477
f 436/515/478 450/535/478 451/537/478
f 429/517/479 82/538/479 444/539/479
f 308/540/480 443/514/480 458/536/480
f 455/530/481 471/541/481 456/532/481
f 448/531/482 464/542/482 449/533/482
f 456/532/483 472/543/483 457/534/483
f 450/535/484 464/542/484 465/544/484
f 457/534/485 473/545/485 458/536/485
f 451/537/486 465/544/486 466/546/486
f 444/539/487 82/547/487 459/548/487
f 308/549/488 458/536/488 473/545/488
f 451/537/489 467/550/489 452/524/489
f 444/539/490 460/551/490 445/525/490
f 452/524/491 468/552/491 453/526/491
f 446/527/492 460/551/492 461/553/492
f 454/528/493 468/552/493 469/554/493
f 446/527/494 462/555/494 447/529/494
f 454/528/495 470/556/495 455/530/495
f 448/531/496 462/555/496 463/557/496
f 459/548/497 475/4/497 460/551/497
f 468/552/498 5/1/498 478/8/498
f 461/553/499 475/4/499 1/9/499
f 468/552/500 6/12/500 469/554/500
f 462/555/501 1/9/501 476/13/501
f 469/554/502 479/15/502 470/556/502
f 463/557/503 476/13/503 2/18/503
f 471/541/504 479/15/504 480/20/504
f 464/542/505 2/18/505 477/21/505
f 472/543/506 480/20/506 481/24/506
f 465/544/507 477/21/507 3/25/507
f 472/543/508 482/28/508 473/545/508
f 466/546/509 3/25/509 4/29/509
f 459/548/510 82/558/510 474/30/510
f 308/559/511 473/545/511 482/28/511
f 466/546/512 5/1/512 467/550/512
f 483/560/513 515/271/513 484/561/513
f 484/561/514 515/271/514 485/562/514
f 485/562/515 515/271/515 486/563/515
f 486/563/516 515/271/516 487/564/516
f 487/564/517 515/271/517 488/565/517
f 488/565/518 515/271/518 489/566/518
f 489/566/519 515/271/519 490/567/519
f 490/567/520 515/271/520 491/568/520
f 491/568/521 515/271/521 492/569/521
f 492/569/522 515/271/522 493/570/522
f 493/570/523 515/271/523 494/571/523
f 494/571/524 515/271/524 495/572/524
f 495/572/525 515/271/525 496/573/525
f 496/573/526 515/271/526 497/574/526
f 497/574/527 515/271/527 498/575/527
f 498/575/528 515/271/528 499/576/528
f 499/576/529 515/271/529 500/577/529
f 500/577/530 515/271/530 501/578/530
f 501/578/531 515/271/531 502/579/531
f 502/579/532 515/271/532 503/580/532
f 503/580/533 515/271/533 504/581/533
f 504/581/534 515/271/534 505/582/534
f 505/582/535 515/271/535 506/583/535
f 506/583/536 515/271/536 507/584/536
f 507/584/537 515/271/537 508/585/537
f 508/585/538 515/271/538 509/586/538
f 509/586/539 515/271/539 510/587/539
f 510/587/540 515/271/540 511/588/540
f 511/588/541 515/271/541 512/589/541
f 512/589/542 515/271/542 513/590/542
f 498/591/543 506/592/543 514/593/543
f 513/590/544 515/271/544 514/594/544
f 514/594/545 515/271/545 483/560/545
f 5/1/1 4/29/1 14/2/1
f 475/4/546 474/30/546 7/5/546
f 5/1/3 15/3/3 16/7/3
f 1/9/4 475/4/4 8/6/4
f 478/8/5 16/7/5 17/11/5
f 476/13/6 1/9/6 9/10/6
f 479/15/7 6/12/7 17/11/7
f 476/13/547 10/14/547 11/17/547
f 479/15/9 18/16/9 19/19/9
f 477/21/10 2/18/10 11/17/10
f 480/20/11 19/19/11 20/23/11
f 3/25/12 477/21/12 12/22/12
f 481/24/548 20/23/548 21/27/548
f 4/29/14 3/25/14 13/26/14
f 13/26/17 28/49/17 29/33/17
f 14/2/20 29/33/20 30/38/20
f 8/6/549 7/5/549 22/35/549
f 15/3/22 30/38/22 31/40/22
f 8/6/23 23/39/23 24/41/23
f 17/11/24 16/7/24 31/40/24
f 9/10/25 24/41/25 25/43/25
f 17/11/26 32/42/26 33/44/26
f 10/14/27 25/43/27 26/45/27
f 19/19/550 18/16/550 33/44/550
f 11/17/29 26/45/29 27/47/29
f 19/19/30 34/46/30 35/48/30
f 13/26/31 12/22/31 27/47/31
f 21/27/32 20/23/32 35/48/32
f 32/42/33 47/65/33 48/50/33
f 25/43/551 40/66/551 41/51/551
f 34/46/35 33/44/35 48/50/35
f 27/47/36 26/45/36 41/51/36
f 35/48/37 34/46/37 49/52/37
f 27/47/38 42/53/38 43/55/38
f 36/37/39 35/48/39 50/54/39
f 28/49/40 43/55/40 44/57/40
f 29/33/43 44/57/43 45/61/43
f 22/35/44 37/59/44 38/62/44
f 30/38/45 45/61/45 46/63/45
f 23/39/46 38/62/46 39/64/46
f 31/40/47 46/63/47 47/65/47
f 24/41/48 39/64/48 40/66/48
f 44/57/51 59/83/51 60/71/51
f 37/59/52 52/68/52 53/72/52
f 46/63/53 45/61/53 60/71/53
f 38/62/54 53/72/54 54/74/54
f 47/65/55 46/63/55 61/73/55
f 39/64/56 54/74/56 55/76/56
f 48/50/57 47/65/57 62/75/57
f 40/66/58 55/76/58 56/78/58
f 49/52/59 48/50/59 63/77/59
f 41/51/60 56/78/60 57/80/60
f 49/52/61 64/79/61 65/81/61
f 43/55/62 42/53/62 57/80/62
f 50/54/63 65/81/63 66/70/63
f 44/57/64 43/55/64 58/82/64
f 55/76/65 70/100/65 71/84/65
f 64/79/66 63/77/66 78/85/66
f 56/78/67 71/84/67 72/87/67
f 64/79/68 79/86/68 80/88/68
f 57/80/552 72/87/552 73/89/552
f 65/81/70 80/88/70 81/90/70
f 58/82/71 73/89/71 74/91/71
f 60/71/74 59/83/74 74/91/74
f 53/72/75 52/68/75 67/93/75
f 60/71/76 75/95/76 76/97/76
f 54/74/77 53/72/77 68/96/77
f 62/75/78 61/73/78 76/97/78
f 54/74/79 69/98/79 70/100/79
f 63/77/80 62/75/80 77/99/80
f 74/91/81 90/114/81 91/101/81
f 67/93/82 83/116/82 84/102/82
f 76/97/83 75/95/83 91/101/83
f 69/98/84 68/96/84 84/102/84
f 77/99/85 76/97/85 92/103/85
f 69/98/86 85/104/86 86/106/86
f 77/99/87 93/105/87 94/107/87
f 71/84/88 70/100/88 86/106/88
f 79/86/89 78/85/89 94/107/89
f 71/84/90 87/108/90 88/110/90
f 79/86/91 95/109/91 96/111/91
f 73/89/92 72/87/92 88/110/92
f 80/88/93 96/111/93 97/113/93
f 74/91/94 73/89/94 89/112/94
f 94/107/97 109/133/97 110/118/97
f 87/108/98 102/134/98 103/119/98
f 96/111/99 95/109/99 110/118/99
f 89/112/100 88/110/100 103/119/100
f 97/113/553 96/111/553 111/120/553
f 90/114/102 89/112/102 104/121/102
f 90/114/105 105/123/105 106/127/105
f 83/116/106 98/125/106 99/128/106
f 91/101/107 106/127/107 107/129/107
f 84/102/108 99/128/108 100/130/108
f 93/105/109 92/103/109 107/129/109
f 85/104/110 100/130/110 101/132/110
f 94/107/111 93/105/111 108/131/111
f 87/108/112 86/106/112 101/132/112
f 106/127/113 121/151/113 122/135/113
f 100/130/554 99/128/554 114/136/554
f 107/129/115 122/135/115 123/138/115
f 100/130/116 115/137/116 116/139/116
f 109/133/117 108/131/117 123/138/117
f 102/134/118 101/132/118 116/139/118
f 110/118/119 109/133/119 124/140/119
f 102/134/120 117/141/120 118/143/120
f 110/118/121 125/142/121 126/144/121
f 103/119/122 118/143/122 119/145/122
f 111/120/555 126/144/555 127/146/555
f 105/123/124 104/121/124 119/145/124
f 106/127/127 105/123/127 120/147/127
f 98/125/556 113/149/556 114/136/556
f 126/144/557 125/142/557 140/152/557
f 118/143/130 133/168/130 134/154/130
f 127/146/558 126/144/558 141/153/558
f 119/145/132 134/154/132 135/156/132
f 120/147/135 135/156/135 136/160/135
f 113/149/136 128/158/136 129/161/136
f 121/151/137 136/160/137 137/162/137
f 114/136/138 129/161/138 130/163/138
f 123/138/139 122/135/139 137/162/139
f 115/137/140 130/163/140 131/165/140
f 123/138/141 138/164/141 139/166/141
f 117/141/142 116/139/142 131/165/142
f 124/140/143 139/166/143 140/152/143
f 117/141/144 132/167/144 133/168/144
f 130/163/145 129/161/145 144/169/145
f 138/164/146 137/162/146 152/171/146
f 130/163/147 145/170/147 146/173/147
f 138/164/148 153/172/148 154/174/148
f 132/167/149 131/165/149 146/173/149
f 140/152/150 139/166/150 154/174/150
f 132/167/151 147/175/151 148/177/151
f 140/152/152 155/176/152 156/178/152
f 134/154/153 133/168/153 148/177/153
f 142/155/154 141/153/154 156/178/154
f 134/154/155 149/179/155 150/181/155
f 135/156/158 150/181/158 151/185/158
f 129/161/159 128/158/159 143/183/159
f 136/160/160 151/185/160 152/171/160
f 149/179/161 148/177/161 163/186/161
f 156/178/162 171/202/162 172/188/162
f 150/181/163 149/179/163 164/187/163
f 150/181/166 165/189/166 166/193/166
f 143/183/559 158/191/559 159/194/559
f 151/185/560 166/193/560 167/195/560
f 145/170/169 144/169/169 159/194/169
f 153/172/170 152/171/170 167/195/170
f 145/170/171 160/196/171 161/198/171
f 154/174/172 153/172/172 168/197/172
f 147/175/173 146/173/173 161/198/173
f 155/176/174 154/174/174 169/199/174
f 147/175/175 162/200/175 163/186/175
f 156/178/176 155/176/176 170/201/176
f 167/195/177 182/218/177 183/203/177
f 160/196/178 175/219/178 176/204/178
f 168/197/179 183/203/179 184/205/179
f 161/198/180 176/204/180 177/206/180
f 170/201/181 169/199/181 184/205/181
f 162/200/182 177/206/182 178/208/182
f 171/202/183 170/201/183 185/207/183
f 164/187/184 163/186/184 178/208/184
f 172/188/185 171/202/185 186/209/185
f 165/189/186 164/187/186 179/210/186
f 166/193/189 165/189/189 180/212/189
f 158/191/190 173/214/190 174/217/190
f 166/193/561 181/216/561 182/218/561
f 159/194/192 174/217/192 175/219/192
f 187/211/193 186/209/193 201/220/193
f 179/210/194 194/236/194 195/222/194
f 180/212/197 195/222/197 196/226/197
f 173/214/198 188/224/198 189/227/198
f 181/216/199 196/226/199 197/228/199
f 175/219/200 174/217/200 189/227/200
f 183/203/201 182/218/201 197/228/201
f 175/219/202 190/229/202 191/231/202
f 184/205/203 183/203/203 198/230/203
f 177/206/204 176/204/204 191/231/204
f 184/205/205 199/232/205 200/234/205
f 178/208/206 177/206/206 192/233/206
f 185/207/207 200/234/207 201/220/207
f 179/210/208 178/208/208 193/235/208
f 190/229/209 205/252/209 206/237/209
f 198/230/210 213/253/210 214/238/210
f 191/231/211 206/237/211 207/239/211
f 200/234/212 199/232/212 214/238/212
f 192/233/213 207/239/213 208/241/213
f 201/220/214 200/234/214 215/240/214
f 194/236/215 193/235/215 208/241/215
f 201/220/216 216/242/216 217/244/216
f 195/222/217 194/236/217 209/243/217
f 195/222/220 210/245/220 211/249/220
f 188/224/221 203/247/221 204/250/221
f 196/226/222 211/249/222 212/251/222
f 189/227/223 204/250/223 205/252/223
f 198/230/224 197/228/224 212/251/224
f 210/245/225 209/243/225 224/254/225
f 211/249/228 210/245/228 225/255/228
f 203/247/562 218/257/562 219/261/562
f 212/251/230 211/249/230 226/260/230
f 204/250/231 219/261/231 220/263/231
f 213/253/232 212/251/232 227/262/232
f 205/252/233 220/263/233 221/265/233
f 214/238/234 213/253/234 228/264/234
f 207/239/235 206/237/235 221/265/235
f 215/240/236 214/238/236 229/266/236
f 207/239/237 222/267/237 223/269/237
f 216/242/238 215/240/238 230/268/238
f 209/243/239 208/241/239 223/269/239
f 217/244/240 216/242/240 231/270/240
f 228/264/563 243/286/563 244/271/563
f 221/265/242 236/287/242 237/272/242
f 229/266/243 244/271/243 245/273/243
f 222/267/244 237/272/244 238/274/244
f 230/268/245 245/273/245 246/275/245
f 223/269/246 238/274/246 239/276/246
f 231/270/247 246/275/247 247/277/247
f 225/255/248 224/254/248 239/276/248
f 225/255/251 240/278/251 241/282/251
f 218/257/252 233/280/252 234/283/252
f 226/260/253 241/282/253 242/284/253
f 220/263/254 219/261/254 234/283/254
f 228/264/255 227/262/255 242/284/255
f 221/265/256 220/263/256 235/285/256
f 240/278/258 255/302/258 256/290/258
f 233/280/259 248/304/259 249/291/259
f 241/282/260 256/290/260 257/292/260
f 234/283/261 249/291/261 250/293/261
f 243/286/262 242/284/262 257/292/262
f 235/285/263 250/293/263 251/295/263
f 244/271/564 243/286/564 258/294/564
f 237/272/265 236/287/265 251/295/265
f 245/273/266 244/271/266 259/296/266
f 237/272/267 252/297/267 253/299/267
f 246/275/268 245/273/268 260/298/268
f 238/274/269 253/299/269 254/301/269
f 246/275/270 261/300/270 262/289/270
f 240/278/271 239/276/271 254/301/271
f 259/296/565 274/321/565 275/305/565
f 253/299/274 252/297/274 267/306/274
f 260/298/275 275/305/275 276/308/275
f 254/301/276 253/299/276 268/307/276
f 261/300/566 276/308/566 277/310/566
f 255/302/278 254/301/278 269/309/278
f 255/302/281 270/311/281 271/315/281
f 249/291/567 248/304/567 263/313/567
f 256/290/283 271/315/283 272/317/283
f 250/293/284 249/291/284 264/316/284
f 258/294/285 257/292/285 272/317/285
f 250/293/286 265/318/286 266/320/286
f 258/294/287 273/319/287 274/321/287
f 251/295/288 266/320/288 267/306/288
f 263/313/289 278/336/289 279/322/289
f 271/315/290 286/338/290 287/323/290
f 264/316/291 279/322/291 280/324/291
f 273/319/292 272/317/292 287/323/292
f 265/318/293 280/324/293 281/326/293
f 274/321/568 273/319/568 288/325/568
f 267/306/295 266/320/295 281/326/295
f 275/305/296 274/321/296 289/327/296
f 267/306/297 282/328/297 283/330/297
f 276/308/298 275/305/298 290/329/298
f 269/309/299 268/307/299 283/330/299
f 277/310/300 276/308/300 291/331/300
f 270/311/301 269/309/301 284/332/301
f 270/311/304 285/334/304 286/338/304
f 282/328/305 297/354/305 298/339/305
f 290/329/306 305/355/306 306/340/306
f 284/332/307 283/330/307 298/339/307
f 292/333/308 291/331/308 306/340/308
f 285/334/309 284/332/309 299/341/309
f 286/338/312 285/334/312 300/343/312
f 278/336/313 293/345/313 294/348/313
f 286/338/314 301/347/314 302/349/314
f 279/322/315 294/348/315 295/350/315
f 287/323/316 302/349/316 303/351/316
f 280/324/317 295/350/317 296/352/317
f 288/325/318 303/351/318 304/353/318
f 281/326/319 296/352/319 297/354/319
f 289/327/320 304/353/320 305/355/320
f 301/347/569 317/372/569 318/356/569
f 295/350/322 294/348/322 310/357/322
f 303/351/323 302/349/323 318/356/323
f 296/352/324 295/350/324 311/358/324
f 303/351/325 319/359/325 320/361/325
f 297/354/326 296/352/326 312/360/326
f 305/355/327 304/353/327 320/361/327
f 297/354/328 313/362/328 314/364/328
f 305/355/329 321/363/329 322/365/329
f 299/341/570 298/339/570 314/364/570
f 306/340/331 322/365/331 323/367/331
f 300/343/332 299/341/332 315/366/332
f 300/343/335 316/368/335 317/372/335
f 294/348/336 293/345/336 309/370/336
f 321/363/337 336/389/337 337/373/337
f 315/366/338 314/364/338 329/374/338
f 323/367/339 322/365/339 337/373/339
f 316/368/340 315/366/340 330/375/340
f 316/368/343 331/377/343 332/381/343
f 309/370/344 324/379/344 325/382/344
f 317/372/345 332/381/345 333/383/345
f 311/358/346 310/357/346 325/382/346
f 319/359/347 318/356/347 333/383/347
f 311/358/348 326/384/348 327/386/348
f 319/359/349 334/385/349 335/387/349
f 312/360/350 327/386/350 328/388/350
f 320/361/351 335/387/351 336/389/351
f 313/362/352 328/388/352 329/374/352
f 326/384/353 325/382/353 340/390/353
f 334/385/354 333/383/354 348/392/354
f 327/386/355 326/384/355 341/391/355
f 334/385/356 349/393/356 350/395/356
f 328/388/357 327/386/357 342/394/357
f 335/387/358 350/395/358 351/397/358
f 328/388/359 343/396/359 344/398/359
f 337/373/360 336/389/360 351/397/360
f 330/375/361 329/374/361 344/398/361
f 338/376/362 337/373/362 352/399/362
f 331/377/363 330/375/363 345/400/363
f 331/377/366 346/402/366 347/406/366
f 324/379/367 339/404/367 340/390/367
f 332/381/368 347/406/368 348/392/368
f 345/400/369 344/398/369 359/407/369
f 352/399/571 367/423/571 368/409/571
f 346/402/371 345/400/371 360/408/371
f 346/402/374 361/410/374 362/414/374
f 340/390/375 339/404/375 354/412/375
f 347/406/376 362/414/376 363/416/376
f 341/391/572 340/390/572 355/415/572
f 349/393/378 348/392/378 363/416/378
f 341/391/379 356/417/379 357/419/379
f 349/393/380 364/418/380 365/420/380
f 342/394/381 357/419/381 358/421/381
f 351/397/382 350/395/382 365/420/382
f 343/396/383 358/421/383 359/407/383
f 351/397/384 366/422/384 367/423/384
f 364/424/385 363/454/385 378/425/385
f 356/427/386 371/455/386 372/428/386
f 364/424/387 379/426/387 380/430/387
f 357/429/388 372/428/388 373/432/388
f 366/434/389 365/431/389 380/430/389
f 358/433/390 373/432/390 374/436/390
f 366/434/573 381/435/573 382/438/573
f 360/440/392 359/437/392 374/436/392
f 368/442/393 367/439/393 382/438/393
f 361/444/394 360/440/394 375/441/394
f 361/444/397 376/445/397 377/450/397
f 355/452/574 354/446/574 369/448/574
f 362/451/399 377/450/399 378/425/399
f 356/427/400 355/452/400 370/453/400
f 382/438/575 397/472/575 398/456/575
f 376/445/402 375/441/402 390/457/402
f 376/445/405 391/458/405 392/462/405
f 369/448/406 384/460/406 385/463/406
f 377/450/407 392/462/407 393/464/407
f 370/453/408 385/463/408 386/465/408
f 378/425/409 393/464/409 394/466/409
f 371/455/410 386/465/410 387/467/410
f 379/426/411 394/466/411 395/468/411
f 373/432/412 372/428/412 387/467/412
f 381/435/413 380/430/413 395/468/413
f 373/432/414 388/469/414 389/471/414
f 381/435/415 396/470/415 397/472/415
f 375/441/416 374/436/416 389/471/416
f 394/466/417 409/489/417 410/473/417
f 388/469/576 387/467/576 402/474/576
f 396/470/419 395/468/419 410/473/419
f 388/469/420 403/475/420 404/477/420
f 397/472/421 396/470/421 411/476/421
f 390/457/577 389/471/577 404/477/577
f 398/456/423 397/472/423 412/478/423
f 391/458/424 390/457/424 405/479/424
f 391/458/427 406/481/427 407/485/427
f 384/460/578 399/483/578 400/486/578
f 392/462/429 407/485/429 408/487/429
f 385/463/430 400/486/430 401/488/430
f 394/466/431 393/464/431 408/487/431
f 386/465/432 401/488/432 402/474/432
f 406/481/435 421/506/435 422/494/435
f 399/483/436 414/491/436 415/495/436
f 407/485/437 422/494/437 423/496/437
f 401/488/438 400/486/438 415/495/438
f 409/489/439 408/487/439 423/496/439
f 401/488/440 416/497/440 417/499/440
f 409/489/441 424/498/441 425/500/441
f 403/475/442 402/474/442 417/499/442
f 410/473/443 425/500/443 426/502/443
f 403/475/444 418/501/444 419/503/444
f 412/478/445 411/476/445 426/502/445
f 405/479/579 404/477/579 419/503/579
f 413/480/447 412/478/447 427/504/447
f 406/481/448 405/479/448 420/505/448
f 418/501/449 417/499/449 432/507/449
f 426/502/450 425/500/450 440/509/450
f 418/501/451 433/508/451 434/511/451
f 426/502/452 441/510/452 442/512/452
f 420/505/453 419/503/453 434/511/453
f 428/493/454 427/504/454 442/512/454
f 420/505/455 435/513/455 436/515/455
f 421/506/458 436/515/458 437/519/458
f 414/491/459 429/517/459 430/520/459
f 422/494/460 437/519/460 438/521/460
f 416/497/461 415/495/461 430/520/461
f 424/498/462 423/496/462 438/521/462
f 416/497/463 431/522/463 432/507/463
f 424/498/464 439/523/464 440/509/464
f 436/515/465 451/537/465 452/524/465
f 429/517/466 444/539/466 445/525/466
f 438/521/467 437/519/467 452/524/467
f 430/520/468 445/525/468 446/527/468
f 439/523/469 438/521/469 453/526/469
f 431/522/470 446/527/470 447/529/470
f 440/509/471 439/523/471 454/528/471
f 433/508/472 432/507/472 447/529/472
f 441/510/473 440/509/473 455/530/473
f 433/508/474 448/531/474 449/533/474
f 442/512/475 441/510/475 456/532/475
f 435/513/476 434/511/476 449/533/476
f 443/514/477 442/512/477 457/534/477
f 436/515/478 435/513/478 450/535/478
f 455/530/481 470/556/481 471/541/481
f 448/531/482 463/557/482 464/542/482
f 456/532/483 471/541/483 472/543/483
f 450/535/484 449/533/484 464/542/484
f 457/534/580 472/543/580 473/545/580
f 451/537/486 450/535/486 465/544/486
f 451/537/489 466/546/489 467/550/489
f 444/539/490 459/548/490 460/551/490
f 452/524/491 467/550/491 468/552/491
f 446/527/492 445/525/492 460/551/492
f 454/528/493 453/526/493 468/552/493
f 446/527/494 461/553/494 462/555/494
f 454/528/495 469/554/495 470/556/495
f 448/531/496 447/529/496 462/555/496
f 459/548/497 474/30/497 475/4/497
f 468/552/498 467/550/498 5/1/498
f 461/553/499 460/551/499 475/4/499
f 468/552/500 478/8/500 6/12/500
f 462/555/501 461/553/501 1/9/501
f 469/554/502 6/12/502 479/15/502
f 463/557/581 462/555/581 476/13/581
f 471/541/504 470/556/504 479/15/504
f 464/542/505 463/557/505 2/18/505
f 472/543/506 471/541/506 480/20/506
f 465/544/507 464/542/507 477/21/507
f 472/543/508 481/24/508 482/28/508
f 466/546/509 465/544/509 3/25/509
f 466/546/512 4/29/512 5/1/512
f 514/593/543 483/595/543 484/596/543
f 484/596/543 485/597/543 514/593/543
f 485/597/543 486/598/543 514/593/543
f 486/598/543 487/599/543 490/600/543
f 487/599/543 488/601/543 490/600/543
f 488/601/543 489/602/543 490/600/543
f 490/600/543 491/603/543 492/604/543
f 492/604/543 493/605/543 494/606/543
f 494/606/543 495/607/543 498/591/543
f 495/607/543 496/608/543 498/591/543
f 496/608/543 497/609/543 498/591/543
f 498/591/543 499/610/543 500/611/543
f 500/611/543 501/612/543 498/591/543
f 501/612/543 502/613/543 498/591/543
f 502/613/543 503/614/543 504/615/543
f 504/615/543 505/616/543 502/613/543
f 505/616/543 506/592/543 502/613/543
f 506/592/543 507/617/543 508/618/543
f 508/618/543 509/619/543 506/592/543
f 509/619/543 510/620/543 506/592/543
f 510/620/543 511/621/543 512/622/543
f 512/622/543 513/623/543 514/593/543
f 490/600/543 492/604/543 498/591/543
f 492/604/543 494/606/543 498/591/543
f 510/620/543 512/622/543 506/592/543
f 512/622/543 514/593/543 506/592/543
f 514/593/543 486/598/543 490/600/543
f 498/591/543 502/613/543 506/592/543
f 514/593/543 490/600/543 498/591/543
